<svg version="1.2" xmlns="http://www.w3.org/2000/svg" viewBox="0 0 750 400" width="750" height="400"><style>.a{fill:#12b2ac}.b{fill:#13b2ac}.c{fill:#12b1ac}.d{fill:#13b2ad}.e{fill:#13b1ad}.f{fill:#0fa6a8}.g{fill:#0fa6a4}</style><path class="a" d="m655.5 60.9q1.2 0 2.4 0c8 0 15.4 0.7 23.1 3.1q6 1.5 12 3 0 1 0 2 0.9 0.2 1.9 0.4 1.2 0.3 2.5 0.5 1.2 0.3 2.4 0.6c2.2 0.5 2.2 0.5 4.2 1.5q0 1 0 2c0.8 0.2 0.8 0.2 1.6 0.3 3 0.9 5.6 2.3 8.4 3.7q0 1 0 2 0.8 0.2 1.7 0.3c10.4 3.1 17.9 13.1 23.4 21.9 3.3 6.3 2.9 15.7 1.2 22.6-0.8 2.1-0.8 2.1-2.3 5.2q-1 0-2 0-0.3 0.8-0.7 1.7c-2.4 4.3-5.7 7.4-10.3 9.3q0 1 0 2c-12.7 9-12.7 9-18 9q0 1 0 2c-3.3 1-6.6 2-10 3q0 1 0 2-2.2 0.8-4.3 1.5c-1.2 0.4-1.2 0.4-2.4 0.8-2.3 0.7-2.3 0.7-5.3 0.7q0 1 0 2-1.3 0.4-2.6 0.8c-7.2 2.1-7.2 2.1-14.2 4.8-5.2 2.3-10.5 3.8-16.2 3.4q0 1 0 2-2.9 0.8-5.8 1.5-1.5 0.4-3.2 0.8c-3 0.7-3 0.7-7 0.7q0 1 0 2-3.3 0.8-6.7 1.5-1.8 0.4-3.7 0.8c-3 0.6-5.6 0.8-8.6 0.7q0 1 0 2-0.9 0.2-1.8 0.3-4.2 0.8-8.4 1.6c-1.4 0.2-1.4 0.2-2.9 0.5q-1.4 0.3-2.8 0.5c-1.3 0.3-1.3 0.3-2.6 0.5-2.6 0.6-5 1.6-7.5 2.6q-2.2 0.5-4.4 0.9-1.2 0.1-2.5 0.3-1.2 0.2-2.5 0.4c-1.3 0.2-1.3 0.2-2.6 0.4-4.4 0.7-8.5 1.2-13 1q0 1 0 2-1.9 0.3-3.9 0.6c-4.9 1.1-8.3 3.2-12.3 6.2-1.8 1.2-1.8 1.2-3.8 1.2q-0.5 1.5-1 3-2 1-4 2c-2.4 2.3-4.6 4.5-6.6 7.2-1.4 1.8-1.4 1.8-3.3 2.7-2.4 1.3-3.6 2.7-5.4 4.8-3 3.6-6.3 6.7-9.9 9.7-2.4 2.1-4.6 4.3-6.8 6.6q-1.3 1.2-2.6 2.5c-2.4 2.3-2.4 2.3-3.7 4.9-2.1 3.2-4.6 5.2-7.6 7.7-2.8 2.5-5.2 5.4-7.6 8.3-1.5 1.6-1.5 1.6-4.5 2.6q-0.4 1.1-0.9 2.2c-1.6 4.1-4.3 7-8.4 8.9q-0.8 0.4-1.7 0.9-0.2 0.9-0.4 1.8c-1.6 5.7-7.9 11-12.6 14.2q-1 0-2 0-0.3 0.8-0.7 1.7c-1.7 3-3.8 5.1-6.2 7.5q-1.3 1.3-2.6 2.7c-2.4 2-3.5 2.6-6.5 3.1q-1.1 2-2 4c-3.1 3.4-6.6 6.4-10.1 9.4q-3 2.6-6 5.2-3.5 3.1-7.2 6.1c-2.6 2.2-2.6 2.2-4.6 4.2-5.8 5.8-12.2 10.9-18.6 16-2.5 2-2.5 2-4.7 4.3-1.9 1.9-3.5 2.7-5.8 3.8q-1.5 1.5-3 3-2.2 1.8-4.5 3.6c-1.2 0.9-1.2 0.9-2.3 1.9-2.2 1.5-2.2 1.5-5.2 2.5q-1.5 1.5-3 3c-5 3.5-9.8 6.7-16 7q0 1 0 2-3.1 0.8-6.1 1.5c-1.7 0.4-1.7 0.4-3.5 0.8-3.2 0.7-6.1 0.8-9.4 0.7q0 1 0 2c-5.8 1-11.4 1.2-17.2 1.2q-1.3 0-2.7 0-1.3 0-2.6 0-1.1 0-2.3 0c-2.5-0.2-4.1-0.8-6.2-2.2-1.2-4.9-0.9-9.1 0-14q1 0 2 0c-0.1-1.7-0.1-1.7-0.1-3.4 0-4.8 0.9-9 2.1-13.6q0.3-1.2 0.6-2.3 0.7-2.9 1.4-5.7 1 0 2 0 0.2-1.5 0.4-3c0.6-4.1 1.5-8 2.6-12q1 0 2 0 0.2-1 0.4-2.1 0.3-1.3 0.5-2.7c0.3-1.4 0.3-1.4 0.6-2.7 0.5-2.5 0.5-2.5 1.5-5.5q1 0 2 0 0.2-0.9 0.4-1.9 0.3-1.2 0.5-2.5c0.3-1.2 0.3-1.2 0.6-2.4 0.5-2.2 0.5-2.2 1.5-4.2q1 0 2 0 0.2-0.8 0.3-1.6c0.9-3 2.3-5.6 3.7-8.4q1 0 2 0 0.2-0.9 0.4-1.8c0.6-2.2 1.5-4.1 2.6-6.2q1 0 2 0c0.5-1.4 0.5-1.4 0.9-2.9 1.1-3.1 1.1-3.1 2.1-5.1q1 0 2 0c0.5-1.4 0.5-1.4 0.9-2.9 1.1-3.1 1.1-3.1 2.1-5.1q1 0 2 0 0.4-1.4 0.7-2.9c1.3-3.1 1.3-3.1 3.4-4.5q0.9-0.3 1.9-0.6 0-1 0-2c4.9-2.4 8.4-3.5 14-3q1.5 1 3 2c-0.3 3.6-0.7 7.3-1 11q-1 0-2 0-0.2 0.9-0.4 1.9-0.3 1.2-0.5 2.5c-0.3 1.2-0.3 1.2-0.6 2.4-0.5 2.2-0.5 2.2-1.5 4.2q-1 0-2 0-0.2 1-0.3 1.9c-0.9 4.2-2.3 8.1-3.7 12.1q-1 0-2 0-0.2 1.3-0.4 2.6c-0.6 3.6-1.6 6.9-2.6 10.4q-1 0-2 0-0.2 1.8-0.4 3.6c-0.4 3.7-1.3 6.9-2.6 10.4q-1 0-2 0-0.2 1.3-0.4 2.6c-0.6 3.3-1.5 6.3-2.6 9.4q-1 0-2 0-0.2 1.5-0.3 3c-0.6 4.3-2.1 8-3.7 12q-1 0-2 0-0.2 1.1-0.4 2.2c-0.6 2.8-1.5 5.2-2.6 7.8q-1 0-2 0-0.5 2.5-1 5c5-0.5 10-1.1 15-2q0-1 0-2c6.6-3 6.6-3 10-3q0-1 0-2 2.2-1 4.4-2 1.2-0.6 2.4-1.1c2.2-0.9 2.2-0.9 4.2-0.9q0.5-1.5 1-3c1.7-1 3.4-2.1 5.2-3 2-1 2-1 4.1-2.8 1.7-1.2 1.7-1.2 3.7-1.2q0-1 0-2c4.4-3 4.4-3 7-3q0.4-0.9 0.8-1.8c1.3-2.4 2.7-3.7 4.9-5.5 3.6-3 6.7-6.3 9.8-9.9 1.4-1.7 2.9-3.2 4.5-4.8q1.5-1.7 3.1-3.5 0.7-0.9 1.5-1.8c1.6-1.9 1.6-1.9 3.4-4.7q1 0 2 0 0.4-1 0.8-1.9c1.2-2.1 1.2-2.1 4.2-3.1 0.2-0.8 0.2-0.8 0.4-1.7 0.9-3.5 3.4-5.6 5.8-8.1q1.5-1.6 3-3.2 0.7-0.8 1.5-1.6 2.3-2.5 4.5-5.2 0.7-0.7 1.4-1.6 1.5-1.8 3.1-3.6c3.3-3.9 6.8-7.3 10.8-10.6 1.7-1.4 1.7-1.4 3-3.9 1.8-3 4.1-4.8 6.8-7 2.2-1.9 3.9-4.2 5.7-6.5q1 0 2 0 0.4-1 0.8-1.9c1.2-2.1 1.2-2.1 4.2-3.1q0.5-1 1-2c1-2 1-2 4-3 0.4-0.9 0.4-0.9 0.9-1.8 1.5-3 3.6-4.9 6.1-7.2q1.3-1.3 2.6-2.7c2.4-2.3 2.4-2.3 4.3-3.2 2.5-1.3 3.8-2.9 5.5-5 2.7-3.2 5-5.1 8.6-7.1q2.5-2.5 5-5c2-1.8 4.1-3.6 6.1-5.3q0.8-0.7 1.6-1.4c3.9-3.3 3.9-3.3 7.3-3.3 0.3-0.9 0.3-0.9 0.6-1.9 1.9-2.9 4.1-3.2 7.4-4.1q0-1 0-2 1.6-0.6 3.3-1.3c2.9-1.2 4.5-2.4 6.7-4.7 11.6-7 11.6-7 15-7q0-1 0-2 2.6-1 5.2-2 1.5-0.6 3-1.1c2.8-0.9 2.8-0.9 6.8-0.9q0-1 0-2 0.9-0.2 1.9-0.3 4.4-0.8 8.7-1.6c1.5-0.2 1.5-0.2 3.1-0.5 4.9-0.9 9.5-2 14.3-3.6q3.5-0.6 7-1.1 1.8-0.3 3.6-0.5c3.1-0.4 6.2-0.5 9.4-0.4q0-1 0-2 6.1-1 12.1-2c1.7-0.3 1.7-0.3 3.5-0.6q1.6-0.2 3.3-0.5 1.6-0.3 3.1-0.5c3-0.4 6-0.5 9-0.4q0-1 0-2 4.1-0.8 8.2-1.5 1.1-0.2 2.3-0.4c3.9-0.7 7.5-1.3 11.5-1.1q0-1 0-2 2.7-0.8 5.3-1.5 1.5-0.4 3-0.8c2.7-0.7 2.7-0.7 5.7-0.7q0-1 0-2 1.8-0.8 3.6-1.7c2.9-1.5 5.6-3.1 8.3-5.1 3.1-2.2 3.1-2.2 5.1-2.2q1-2.5 2-5 1 0 2 0 0.5-1.2 0.9-2.4c1.1-2.6 1.1-2.6 2.1-4.6q1 0 2 0c1.6-5.7 2.2-10.1 1-16q-0.3-1.7-0.6-3.4-0.2-1.3-0.4-2.6-1.5-0.5-3-1c-1.2-3.1-1.2-3.1-2-6q-1 0-2 0c-1.6-1.6-1.6-1.6-3.3-3.8-2.7-3.2-5-5.2-8.7-7.2q0-1 0-2c-3.3-1-6.6-2-10-3q0-1 0-2-2.8-0.3-5.6-0.7-2.8-0.4-5.6-0.8c-17.3-2.2-35.4-0.5-51.8 5.5-2 0.4-4 0.7-6 1q0 1 0 2-1 0.5-2 1c-5.9 2.8-5.9 2.8-11.4 6.3-2.6 1.7-2.6 1.7-5.6 1.7q-0.4 1-0.8 1.9c-1.2 2.1-1.2 2.1-3.3 2.7-0.9 0.2-0.9 0.2-1.9 0.4q-0.5 1.5-1 3c-3.1 1.2-3.1 1.2-6 2q0 1 0 2c-2.9 2-4.4 3-8 3q-0.4 0.9-0.8 1.9c-1.4 2.5-2.6 2.9-5.2 4.1q-1 1.5-2 3-2 1-4 2-0.7 0.7-1.4 1.4c-1.8 1.8-3.8 3.2-6 4.7q-1.2 0.8-2.3 1.6c-2.2 1.2-3.9 1.9-6.3 2.3q0 1 0 2-2.2 1-4.4 2-1.2 0.6-2.4 1.1c-2.2 0.9-2.2 0.9-4.2 0.9q0 1 0 2c-5.6 3-5.6 3-9 3q0 1 0 2-1.7 0.8-3.5 1.7c-3.8 1.9-7.3 4-10.8 6.3-1.7 1-1.7 1-3.7 1q0 1 0 2c-5.8 3-5.8 3-8 3q0 1 0 2-1.4 0.6-2.8 1.3c-2.8 1.5-4.1 2.5-6.2 4.7-3.1 2.2-6.3 4.2-9.7 6.1-3.1 1.6-3.1 1.6-4.7 3.3-2 2-4.3 3.6-6.7 5.3q-1.3 0.9-2.6 1.9c-2.3 1.4-2.3 1.4-4.3 1.4q0 1 0 2c-4.4 3-4.4 3-7 3q-0.5 1.5-1 3c-3.2 1.9-5.2 3-9 3q-0.5 1.5-1 3c-2.9 1.4-4.7 2-8 2q0 1 0 2c-7.3 3.6-14 6.6-22 8q0 1 0 2-3.1 1-6.3 2-1.7 0.6-3.5 1.1c-3.2 0.9-3.2 0.9-7.2 0.9q0 1 0 2-2.6 0.8-5.2 1.5-1.4 0.4-2.9 0.8c-2.8 0.7-5.1 0.8-7.9 0.7q0 1 0 2-1.7 0.4-3.5 0.8-2.4 0.5-4.7 1.1-1.1 0.2-2.3 0.5c-3.1 0.7-6.1 1.4-9.1 2.6-3.3 1.4-6.8 1.9-10.3 2.5-3.8 0.6-7.4 1.3-11 2.5-4.1 1.3-8.3 2-12.6 2.6-1.2 0.2-1.2 0.2-2.5 0.4-4.4 0.7-8.6 1.2-13 1q0 1 0 2c-23.5 2.6-46.5 2.5-70 0q0-1 0-2-1.8 0.1-3.6 0.1c-6.5 0-12.7-1-19.1-2q-1.8-0.2-3.6-0.5c-5.5-0.8-10.5-1.8-15.7-3.6q-2-0.5-4.1-0.9c-1-0.1-1-0.1-2.1-0.3q-1.1-0.2-2.2-0.4-1.1-0.2-2.2-0.4-2.7-0.5-5.4-1 0-1 0-2c-0.9-0.1-0.9-0.1-1.9-0.1-5.6-0.5-10.7-1.4-16.1-2.9q0-1 0-2c-7.9-2.3-7.9-2.3-15.7-0.8-2.3 1.8-4.3 3.7-6.3 5.8q-5.1 5.1-10.2 10.1-2.2 2.2-4.4 4.4-1.5 1.5-3 3-2.2 2.2-4.4 4.4c-1.3 1.3-1.3 1.3-2.6 2.6-2.3 2.4-4.3 4.9-6.4 7.5q-1.3 1.3-2.6 2.6c-2.2 2.2-3.1 3.7-4.4 6.4-1.6 1.7-3.2 3.2-4.9 4.7-2.1 2.3-3.5 4.7-5 7.4q-1.8 3.2-3.7 6.3-0.6 1.1-1.3 2.1-0.5 0.7-1.1 1.5-1 0-2 0-0.4 1-0.8 2.1c-1.2 2.9-1.2 2.9-3.1 5.6-2.6 4-4.5 8.2-6.5 12.5-0.8 1.7-1.7 3.2-2.6 4.8q-1.5 0.5-3 1-0.2 1-0.4 2.1c-0.6 3.1-1.6 6-2.6 8.9q-1 0-2 0-0.2 1-0.4 2.1c-0.6 3.1-1.6 6-2.6 8.9q-1 0-2 0-0.4 1.9-0.8 3.8c-1 4.7-2.6 9.1-4.3 13.6-0.9 2.5-1.4 5-1.9 7.6q3.6-0.6 7.1-1.3 1-0.2 2-0.4c4.4-0.8 7.9-2.2 11.9-4.3 2.6-0.7 2.6-0.7 4.9-1.2 1.1-0.2 1.1-0.2 2.3-0.5q0.9-0.1 1.8-0.3 0-1 0-2 1.9-0.8 3.8-1.5c1.1-0.4 1.1-0.4 2.2-0.8 2-0.7 2-0.7 5-0.7q0.5-1.5 1-3c2.9-1.4 4.7-2 8-2q0.5-1.5 1-3 3-1.5 6-3 0.5-1 1-2c2.9-2 4.4-3 8-3q0.4-1 0.7-1.9c1.6-2.6 2.5-2.4 5.3-3.1q1-2 2-4 1.5-0.5 3-1 0.4-0.9 0.9-1.8c1.5-3 3.6-4.9 6.1-7.2q1.3-1.3 2.6-2.7c2.4-2.3 2.4-2.3 4.6-3.3 2.6-1.4 2.7-3.3 3.8-6q2.4-3.1 5-6c2.8-3.4 2.8-3.4 5.1-7.1 0.9-1.9 0.9-1.9 2.3-3.3 4.3-4.3 7-10.2 9.6-15.6q1 0 2 0 0.2-1.1 0.4-2.2c0.6-2.8 1.5-5.2 2.6-7.8q1 0 2 0c0.6-4 1-7.6 0.9-11.6 0.1-3.5 0.8-6.1 2.1-9.4 8-1.7 12.1-0.1 19 4q1.1 0.6 2.2 1.2c4.6 2.5 4.6 2.5 5.8 4.8 2.3 1.4 4.6 2.7 7 4q2 1.1 3.9 2.2 1.5 0.9 3.1 1.8 0 1 0 2 1.3 0.4 2.5 0.8c3.8 1.3 7.3 3 10.9 4.8q0.9 0.5 1.9 1 2.4 1.2 4.7 2.4 0 1 0 2 1.9 0.5 3.8 0.9c2.5 0.6 4.8 1.3 7.2 2.1q0 1 0 2 1 0.2 2.1 0.4 1.3 0.3 2.7 0.5 1.3 0.3 2.7 0.6c2.5 0.5 2.5 0.5 5.5 1.5q0 1 0 2 1.9 0.2 3.8 0.4c3.6 0.4 7 0.9 10.5 1.6 5.9 1.1 11.7 1.6 17.7 2q0 1 0 2c2.3 0 4.6 0 7 0q0-1 0-2 4.2-0.3 8.4-0.6 1.2 0 2.5-0.1 3-0.2 6.1-0.3c1 1 1 1 1.4 4.3-0.4 3.7-0.4 3.7-3.1 6.1-3.3 1.6-3.3 1.6-7.3 1.6q0 1 0 2c-11 2.4-21.5 3.5-32.8 3.4-1 0-1 0-2.2 0-11.8-0.1-23.3-1-35-3.4q0-1 0-2-1.4-0.2-2.9-0.3c-4.8-0.7-9.4-2.2-14.1-3.7q0-1 0-2-0.9-0.2-1.9-0.4-1.2-0.3-2.5-0.5-1.2-0.3-2.4-0.6c-2.2-0.5-2.2-0.5-4.2-1.5q0-1 0-2-0.8-0.2-1.7-0.4c-2.5-0.7-4.9-1.5-7.3-2.6q-0.5-1-1-2-3-1.6-6-3 0-1 0-2c-2.3-0.3-4.6-0.7-7-1q-1.5 3-3 6-1 0-2 0-0.4 1.1-0.8 2.2c-1.3 3.1-3.1 5.2-5.2 7.8q-0.6 1.1-1.1 2.2c-0.9 1.8-0.9 1.8-2.9 2.8q-0.7 1.2-1.4 2.5c-1.6 2.5-1.6 2.5-4.6 3.5q-0.2 0.9-0.4 1.8c-0.8 3.1-2.7 4.8-4.9 7.1-2.4 2.5-4.6 5-6.7 7.7-1.9 2.3-3.7 4-5.9 5.9-2.5 2.1-4.8 4.1-7 6.4-2.1 2.1-2.1 2.1-4.1 2.1q0 1 0 2c-4.4 4-4.4 4-8 4q-0.4 1-0.8 1.9c-1.2 2.1-1.2 2.1-3.3 2.7q-0.9 0.2-1.9 0.4-0.5 1.5-1 3c-2.2 1.4-2.2 1.4-5 3q-1.5 1.1-3.1 2.2c-2.9 1.8-2.9 1.8-5.9 1.8q-0.5 1.5-1 3c-3.5 1.7-6.1 3-10 3q0 1 0 2c-6.6 3-6.6 3-10 3q0 1 0 2-1.2 0.4-2.5 0.8-1.7 0.5-3.4 1c-1.8 0.6-1.8 0.6-3.7 1.1-2.6 0.9-5.3 1.8-7.9 2.7-10.7 3.6-21.7 3.7-32.8 3.5q-2 0-4 0-4.9 0-9.7-0.1c0.3-3 0.7-5.9 1-9q1 0 2 0 0.1-0.9 0.1-1.8c0.5-4.6 1.2-8.8 2.9-13.2q1 0 2 0 0.2-1.5 0.4-3.1c0.6-3.8 1.5-7.2 2.6-10.9q1 0 2 0 0.4-1.7 0.7-3.4c0.8-3.1 1.8-5.9 3.1-8.8q0.5-1.2 1.1-2.4 0.5-1.2 1.1-2.4 1.1-2.4 2.1-4.8 3-6.6 5.9-13.2 1 0 2 0c0.2-1.1 0.2-1.1 0.4-2.3 0.6-2.5 1.3-4.4 2.6-6.7q1 0 2 0 0.2-1 0.3-2.1c0.8-3.3 2.1-5.9 3.7-8.9q1 0 2 0 0.2-0.9 0.4-1.8c0.6-2.2 1.5-4.1 2.6-6.2q1 0 2 0 0.4-1.4 0.8-2.9 0.6-1.5 1.2-3.1 1.5-0.5 3-1c0.6-1.9 0.6-1.9 1-4q1-1.5 2-3 1 0 2 0 0.4-1.1 0.9-2.3c1.1-2.7 1.1-2.7 3.1-5.7q1 0 2 0 0.3-1.1 0.7-2.2c1.6-3.4 3.6-5.3 6.3-7.8q1.2-1.2 2.5-2.5 1.2-1.2 2.5-2.5 1.2-1.3 2.5-2.6c2.4-2.3 4.7-3.7 7.5-5.4q1-1.5 2-3c2.1-1.4 2.1-1.4 5-3q1.9-1.1 3.9-2.2 2.1-1.2 4.2-2.4 1.1-0.6 2.2-1.3 1-0.5 2.1-1.1 0.9-0.6 1.9-1.1c1.7-0.9 1.7-0.9 4.7-1.9q0-1 0-2-1.1-0.2-2.3-0.4c-2.5-0.6-4.4-1.2-6.7-2.6q-0.5-1-1-2c-1.2-0.7-1.2-0.7-2.5-1.5-2.5-1.5-2.5-1.5-3.5-3.5-0.1-3.1-0.1-3.1 0-6 1-1 1-1 3-1.1q1.1 0 2.4 0 1.2 0 2.4 0c2.2 0.1 2.2 0.1 5.2 1.1q0 1 0 2 0.8 0.2 1.7 0.4c4.8 1 9.6 2.2 14.3 3.6q0 1 0 2c1.7 0.2 1.7 0.2 3.5 0.4 4.3 0.5 8.3 1.5 12.5 2.6q0 1 0 2c1.9 0.2 1.9 0.2 3.9 0.4 4.8 0.5 9.4 1.5 14.1 2.6q0 1 0 2c0.9 0.1 0.9 0.1 1.9 0.1 5.8 0.6 11.4 1.5 17.1 2.9q0 1 0 2c1.9 0.2 1.9 0.2 3.9 0.3 5 0.5 9.9 1.3 14.8 2.1q1.1 0.2 2.1 0.4c3.3 0.6 6.4 1.3 9.6 2.2 4.5 1.2 8.9 1.9 13.5 2.6q1.3 0.2 2.7 0.4 3.2 0.5 6.4 1 0 1 0 2c13.2 0 26.4 0 40 0q0-1 0-2 4-0.8 8.1-1.5 1.1-0.2 2.2-0.4c4.7-0.9 9-1.3 13.7-1.1q0-1 0-2 4.6-1 9.2-2 1.3-0.3 2.6-0.6 1.3-0.2 2.6-0.5 1.1-0.3 2.3-0.5c2.5-0.4 4.8-0.5 7.3-0.4q0-1 0-2 1.7-0.4 3.4-0.8c9.4-2.1 9.4-2.1 18.6-4.9 4.3-1.5 8.5-1.9 13-2.3q0-1 0-2 2.6-0.8 5.2-1.5 1.5-0.4 3-0.8c2.8-0.7 2.8-0.7 6.8-0.7q0-1 0-2 3.4-1 6.7-2 1.9-0.6 3.8-1.1c3.5-0.9 3.5-0.9 7.5-0.9q0-1 0-2 1.1-0.4 2.3-0.7c5.8-1.9 11.4-3.9 16.9-6.6 1.8-0.7 1.8-0.7 4.8-0.7q0-1 0-2 1.6-0.8 3.2-1.5c7-3.5 13.8-6.9 20.2-11.5 1.6-1 1.6-1 3.6-1q0-1 0-2c4.4-3 4.4-3 7-3q0-1 0-2 0.8-0.4 1.6-0.8 1.1-0.5 2.2-1 1.1-0.5 2.2-1c2-1.2 3.3-2.5 5-4.2q2.7-1.9 5.6-3.7 1.4-0.9 2.9-1.9c2.5-1.4 2.5-1.4 4.5-1.4q0-1 0-2c5.7-3 5.7-3 8-3q0-1 0-2 0.8-0.4 1.6-0.8 1.1-0.5 2.2-1 1.1-0.5 2.2-1c2-1.1 2-1.1 3.6-2.8 2.1-2.1 4.6-2.6 7.4-3.4q0-1 0-2c5.7-3 5.7-3 8-3q0.5-1.5 1-3 2.5-1.5 5-3 1.6-1.3 3.1-2.7c2.9-2.3 2.9-2.3 5.9-2.3q0.4-1 0.8-1.9c1.2-2.1 1.2-2.1 4.2-3.1q0.5-1 0.9-2 0.6-1 1.1-2 2-0.5 4-1 0.5-1 1-2 0.5-1 1-2 2-0.5 4-1 1-2 2-4c2.1-1.1 2.1-1.1 4-2q0.5-1 1-2c2.9-2 4.4-3 8-3q0.5-1.5 1-3 3-1.6 6-3 1.6-1.1 3.2-2.2c2.8-1.8 2.8-1.8 5.8-1.8q0-1 0-2 2.4-1 4.8-2c1.4-0.6 1.4-0.6 2.7-1.1 2.5-0.9 2.5-0.9 5.5-0.9q0-1 0-2 2.1-0.8 4.2-1.5 1.2-0.4 2.4-0.8c2.4-0.7 2.4-0.7 6.4-0.7q0-1 0-2c13.6-3.4 13.6-3.4 20-3q0-1 0-2c6.2-0.8 12.2-1.2 18.5-1.1z"/><path class="b" d="m318.5 47.6q4.5 0 8.9 0c13.4 0 26.4 1.2 39.6 3.4q0 1 0 2 0.9 0.1 1.7 0.1c10.5 0.9 20.4 3.4 30.3 6.9q2.8 0.9 5.6 1.8c5.1 1.7 10.3 3.5 15.3 5.4 4.7 1.8 9.4 3.3 14.1 4.8q0 1 0 2 1.2 0.2 2.4 0.3c4.4 0.9 8.4 2.2 12.6 3.7q0 1 0 2c5 1.5 5 1.5 10 3q0 1 0 2c0.9 0.2 0.9 0.2 1.7 0.5 9.9 3 14.5 7.1 19.9 15.9 2.3 4.2 2.6 7.7 2.7 12.5q0 1.6 0 3.1c-0.3 3.4-1.2 5.3-3.3 8q-1 0-2 0-0.5 1.5-1 3c-5.7 2.8-13.2 3.1-19.3 1.3-1.9-0.8-1.9-0.8-4.7-2.3q0-1 0-2-1-0.4-1.9-0.8c-2.1-1.2-2.1-1.2-3.1-4.2q-0.9-0.4-1.7-0.9c-3.1-1.5-5-3.6-7.3-6.1q-1.3-1.3-2.7-2.6c-2.3-2.4-2.3-2.4-3.3-4.6-1.4-2.6-3.2-2.7-6-3.8-2.8-1.8-5.5-3.7-8-6q0-1 0-2-1.2-0.3-2.4-0.6c-4.8-1.9-8.4-4.5-12.6-7.4q0 8.9 0 18c-29.9 16-29.9 16-34 16q0 1 0 2-1 0.4-2 0.8c-1.3 0.5-1.3 0.5-2.7 1q-1.3 0.5-2.6 1c-2.7 1.1-2.7 1.1-5 2.9-3.9 1.9-7.2 1.4-11.4 1q-1.2 0-2.5-0.1c-5.3-0.4-10.5-0.9-15.8-1.6q0-1 0-2-1.9 0-3.9 0.1c-5.1 0-10.1-0.7-15.2-1.6q-1.3-0.2-2.6-0.4-3.1-0.6-6.3-1.1 0-1 0-2c-1.2-0.1-1.2-0.1-2.5-0.1-7.3-0.5-14.3-1.4-21.5-2.9q0-1 0-2-0.9-0.1-1.7-0.1c-7.3-0.6-14.2-2.1-21.3-3.9q0-1 0-2-1.5-0.2-3.1-0.3c-3.9-0.7-6.5-1.8-9.9-3.7q-0.9-0.5-1.9-1c-5-2.6-5-2.6-6.1-6-1.8-0.9-1.8-0.9-4-1q-2.5 0.9-5 2-1.5 0-3 0 0 1 0 2-1.5 0.8-3.1 1.5c-7.4 3.7-14.7 7.4-21.9 11.5-2 1-2 1-4 1q0 1 0 2c-5.6 3-5.6 3-9 3q0 1 0 2c-8.3 4.6-8.3 4.6-12.4 6.6-2.4 1.3-3.7 2.4-5.6 4.4-4.4 3-4.4 3-8 3-0.5 1.5-0.5 1.5-1 3-3.1 1.2-3.1 1.2-6 2q0 1 0 2c-2.9 2-4.4 3-8 3q-0.5 1.5-1 3c-4.3 3-4.3 3-7 3q0 1 0 2-3 2.1-6 4-1.3 1.1-2.7 2.2c-2.3 1.8-2.3 1.8-5.3 1.8q0 1 0 2c-3 0-5.9 0-9 0q-0.5-2-1-4c1.5-1 1.5-1 3-2q1-2 2-4 1.5-1.5 3-3 1-1.5 2-3 1 0 2 0c0.4-1.1 0.4-1.1 0.7-2.2 1.5-3.2 3.2-5.2 5.6-7.8q1.2-1.3 2.5-2.6 3.5-3.8 7.2-7.4c2.4-2.4 4.7-4.6 6.8-7.4 2.6-3.1 5.7-5.4 9-7.9 2.3-1.7 2.3-1.7 4.3-3.9 1.9-1.8 1.9-1.8 4-2.3q0.9-0.2 1.9-0.5c0.5-1 0.5-1 1-2 0.5-1 0.5-1 1-2q2-0.5 4-1 0.5-1.5 1-3 3-1.5 6-3c0.5-1 0.5-1 1-2q1.7-0.7 3.4-1.4c3.3-1.5 4.2-2.2 6.6-4.6q2.4-1.6 4.9-3.1 1.2-0.8 2.5-1.6c2.6-1.3 4.8-1.9 7.6-2.3q0-1 0-2 2.4-1 4.9-2 1.3-0.6 2.7-1.1c2.4-0.9 2.4-0.9 4.4-0.9q0-1 0-2 1-0.4 2.1-0.7c5.4-2 10.7-4 15.9-6.6 2-0.7 2-0.7 6-0.7q0-1 0-2 2.6-0.8 5.3-1.5 1.4-0.4 2.9-0.8c2.8-0.7 2.8-0.7 6.8-0.7q0-1 0-2 4.3-1 8.7-2 1.2-0.3 2.5-0.6c4-0.9 7.7-1.7 11.8-1.4q0-1 0-2c14.2-2.3 28.1-3.5 42.5-3.4zm1.5 19.4q0 1 0 2-0.9 0-1.8-0.1c-7-0.1-13.5 0.8-20.3 2.1q-1.6 0.3-3.2 0.6-3.9 0.7-7.7 1.4 0 1 0 2-0.8 0.1-1.7 0.1c-5 0.5-9.5 1.4-14.3 2.9q0 1 0 2c-1.5 0.2-1.5 0.2-3 0.4-4.1 0.6-8 1.5-12 2.6q0 1 0 2-3 0.5-6 1 1 1 2 2 1.5 0 3 0 0 1 0 2 1.6 0.7 3.3 1.5 0.9 0.4 1.8 0.8c2.2 0.9 2.2 0.9 5.9 0.7q0 1 0 2 1.5 0.5 3 1 2 0.7 4.1 1.3 0.9 0.3 2 0.7 4.8 1.5 9.6 3.6c2.8 1.2 4.8 1.8 7.7 2.1 1.8 0.1 1.8 0.1 3.6 0.3q0 1 0 2 1.4 0.4 2.8 0.8 1.8 0.5 3.7 1c1 0.3 1 0.3 2 0.6 3.3 0.9 6.5 1.9 9.7 3.3 4.7 1.9 9.7 2 14.8 2.3q0 1 0 2c5 0 9.9 0 15 0q0-1 0-2 1.4 0.1 2.8 0.2c9.1 0 17.4-3.9 25.2-8.2q0-1 0-2 1.2-0.5 2.4-0.9c2.5-1 2.5-1 4.6-2.1q0-1 0-2c0.9-0.4 0.9-0.4 1.7-0.8 4.9-2.6 9.3-6.2 11.8-11.1q0.2-1.1 0.5-2.1 1 0 2 0 0.5-2 1-4-3-0.5-6-1 0-1 0-2-2.1-0.8-4.2-1.5-1.2-0.4-2.4-0.8c-2.6-0.9-2.6-0.9-6.4-0.7q0-1 0-2c-8.3-1.9-16.5-3.4-24.9-4.4-5-0.5-5-0.5-6.1-1.6q-2.9-0.1-5.8-0.1-1.7 0-3.5 0-1.9 0-3.8 0-1.8 0-3.7 0.1-4.6 0-9.2 0z"/><path class="c" d="m409.6 114.2c2.8 2.1 5.1 4.2 7.4 6.8q0 2 0 4c-1.4 0-1.4 0-2.8 0.1-7.3 0.3-12.2 0.8-18.2 4.9q-1.5 0-3 0-0.3 0.8-0.7 1.7c-2.3 4-4.9 6.8-9.3 8.3-0.6 1.9-0.6 1.9-1 4q-1.1 2-2.4 3.9c-3.7 5.7-3.7 5.7-4.4 12.3 0.6 2.9 0.6 2.9 2.8 4.8 6.6 1.5 12.6 0.9 19-1q0-1 0-2 2.6-1 5.2-2 1.5-0.6 3-1.1c2.8-0.9 2.8-0.9 6.8-0.9q0-1 0-2c3.6-1 7.3-2 11-3q0-1 0-2 2.4-0.8 4.7-1.5 1.4-0.4 2.7-0.8c2.6-0.7 2.6-0.7 6.6-0.7q0-1 0-2c4.1-0.3 6.5-0.2 10.2 1.6 3.1 2.6 4.4 4.7 5.8 8.4q0 2 0 4c-2.9 1.3-4.8 2-8 2q0 1 0 2-2.2 0.8-4.3 1.5-1.2 0.4-2.4 0.8c-2.3 0.7-2.3 0.7-5.3 0.7q0 1 0 2-2.6 1-5.3 2-1.4 0.6-2.9 1.1c-2.8 0.9-2.8 0.9-6.8 0.9q0 1 0 2c-1 0.3-1 0.3-2 0.7-11.8 3.3-11.8 3.3-22 9.3-2.7 0.1-5.3 0-8 0q0-1 0-2-0.9-0.2-1.9-0.4-1.2-0.3-2.5-0.5c-1.2-0.3-1.2-0.3-2.4-0.6-2.2-0.5-2.2-0.5-4.2-1.5q0-1 0-2c-1.4-0.2-1.4-0.2-2.8-0.4-2.8-0.5-4.7-1.2-7.2-2.6q0-1 0-2-0.9-0.4-1.9-0.8c-2.6-1.5-3-2.4-4.1-5.2-0.3-3-0.3-3-0.3-6.5q0-1.9 0-3.9 0-0.9 0-2 0-3 0-6 0-1.9 0-3.8 0-1.7 0-3.5c0.3-3.4 1.1-6.1 2.3-9.3q1 0 2 0 0-1 0-2c6.7-3 6.7-3 9-3q0-1 0-2 0.9-0.4 1.9-0.7c4.3-1.8 8.6-3.5 12.9-5.5 3.1-1.4 5.9-2.4 9.2-2.8q0-1 0-2c4.6-1.5 9.2-1.8 13.6 0.2z"/><path class="d" d="m317 135q0 1 0 2 1 0.3 2.1 0.6c1.4 0.4 1.4 0.4 2.8 0.8q1.3 0.4 2.7 0.8c2.4 0.8 2.4 0.8 4.4 1.8q0 1 0 2 2.5 0.5 5 1c1 3 1 3 2 6q1 0 2 0c0 4 0 7.9 0 12q-1 0-2 0c0.1 1.4 0.1 1.4 0.1 2.8 0.3 15.3 0.3 15.3-4.8 21.1-4.9 4.7-10.3 8.1-17.3 8.1q0 1 0 2-2.4 0.8-4.8 1.5-1.3 0.4-2.7 0.8c-2.5 0.7-2.5 0.7-5.5 0.7q0 1 0 2c-5.6 2.2-10 3.8-16 2-2.8-2.4-2.8-2.4-5-5q-1.5-1-3-2 0-3 0-6 8.8 0 18 0 0-1 0-2c5.8-3 5.8-3 8-3q0-1 0-2 1-0.8 2.1-1.6c6-4.9 10.3-10.6 13.9-17.4q1 0 2 0c0-3 0-5.9 0-9q-1-0.5-2-1 0-1 0-2c-6.9-1.7-12.4-1.2-19 1.4-4.7 1.9-9 3-14 3.6q0 1 0 2-2.4 0.8-4.8 1.5c-1.3 0.4-1.3 0.4-2.6 0.8-2.6 0.7-2.6 0.7-6.6 0.7q0 1 0 2c-15.2 4.4-15.2 4.4-22 3-2.8-2.2-4.4-3.8-6-7q-0.1-3.5 0-7 2 0 4 0 0-1 0-2 2.6-0.8 5.2-1.5 1.5-0.4 3-0.8c2.8-0.7 2.8-0.7 6.8-0.7q0-1 0-2 1.3-0.4 2.6-0.8c7.2-2.1 7.2-2.1 14.1-4.8 3.5-1.5 7.1-2.6 10.8-3.6 2.4-0.8 4.7-1.6 7.1-2.5 6.8-2.3 12.7-1.5 19.4 0.7z"/><path class="c" d="m217 148c-0.1 1.4-0.1 1.4-0.2 2.8 0.2 3.5 0.9 4.5 3.2 7.2q0 1 0 2 0.8 0.3 1.7 0.7c4 2.3 6.8 4.9 8.3 9.3 2.5 2.7 4.9 4.9 8 7q0.7 1.1 1.4 2.3c1.5 2.9 1.5 2.9 4.3 5.3 2.3 2.4 2.3 2.4 2.3 5.4q1 0 2 0 0 1 0 2-2.5 1-5 2 0 1 0 2-3.6 1.5-7.3 2.9-2.4 1-4.9 2c-4.6 1.9-8.8 2.7-13.8 3.1q0 1 0 2c-5.6 0-11.2 0-17 0q0-1 0-2-1.8-0.2-3.7-0.4c-3.4-0.4-6.2-1.1-9.3-2.6q0-1 0-2-1.7-0.4-3.4-0.8c-1.8-0.6-1.8-0.6-3.6-1.2q-0.5-1.5-1-3-1.1-0.2-2.2-0.4c-2.8-0.6-4.8-1.5-7.2-3-2.7-1.5-5.3-2.9-8.1-4.3-2.5-1.3-2.5-1.3-3.5-3.3q-2.5-1.5-5.1-2.9c-2.7-1.6-5.3-3.3-7.9-5.1q0.5-3 1-6 1 0 2 0c1.1-2.7 2.1-5.3 3-8q1.5-1.5 3-3 0.5-1 1.1-2.1c0.9-1.9 0.9-1.9 2.9-2.9q0.5-1.5 1-3c3.1 0.3 4.6 0.6 6.8 2.9 1.2 2.1 1.2 2.1 1.2 5.1q1 0 2 0c1.1 3.4 1.1 6.1 1.1 9.7q-0.1 1.7-0.1 3.6 0 1.3 0 2.7 1 0.3 2.1 0.6 1.4 0.4 2.8 0.8 1.3 0.4 2.7 0.8c2.4 0.8 2.4 0.8 4.4 1.8q0 1 0 2 1.1 0.2 2.2 0.4c2.8 0.6 5.2 1.5 7.8 2.6q0 1 0 2c4.2 1 8.2 1.3 12.5 1.5 4.3 0.2 8.3 0.5 12.5 1.5q-0.5-0.8-1.1-1.6-0.6-1.1-1.3-2.2-0.7-1-1.4-2.1c-2.1-3.7-2.3-7-2.3-11.2q0-1.4 0.1-2.9 0-3 0-6 0.1-1.5 0.1-2.9 0-1.3 0-2.7c-0.1-2.3-0.5-4.2-1.1-6.4 3-2 3-2 7-2z"/><path class="e" d="m633 93q3 0 6 0 0 1 0 2 1.6 0.1 3.2 0.2c4.5 1 6 2.2 8.8 5.8 0.8 2.8 0.8 2.8 1 5q1 0 2 0c0.6 6.6 0.1 10.9-3.6 16.5-1.4 1.5-1.4 1.5-4.4 2.5q0 1 0 2c-5.9 2.2-10.8 2.1-17 1q-1-0.5-2-1 0-1 0-2-2-0.5-4-1-0.5-2-1-4-1 0-2 0c-1.5-3-1.1-5.7-1.1-9q0-1.9 0-3.8c0.1-3.2 0.1-3.2 1.1-5.2q1 0 2 0 0.4-1.2 0.7-2.4c1.3-2.6 1.3-2.6 3.1-3.9 2.5-0.8 4.6-0.8 7.2-0.7q0-1 0-2z"/><path class="f" d="m217 148q-0.5 2.5-1 5-2.5 0.5-5 1-0.5-2-1-4c3-2 3-2 7-2z"/><path class="g" d="m95 243q1 0.5 2 1c-3.5 3-3.5 3-7 6 1.2-3.7 1.7-4.8 5-7z"/></svg>