<svg version="1.2" xmlns="http://www.w3.org/2000/svg" viewBox="0 0 1100 586" width="1100" height="586"><style>.a{fill:#fae9b5}.b{fill:#fae9b4}.c{fill:#faebac}.d{fill:#faebab}.e{fill:#faebaf}.f{fill:#fae9b3}.g{fill:#faeaab}.h{fill:#faeaad}.i{fill:#faebae}.j{fill:#fae9b1}.k{fill:#faebb0}.l{fill:#f9eaae}.m{fill:#f9e9a8}.n{fill:#f9eaac}.o{fill:#fae9ac}.p{fill:#faeaae}.q{fill:#faeca6}.r{fill:#fcf17c}.s{fill:#ffff4c}.t{fill:#ff0}.u{fill:#ffff8b}.v{fill:#ffff76}.w{fill:#ffff8f}.x{fill:#ffff6a}.y{fill:#ffff5b}.z{fill:#ffff2a}.A{fill:#ff9}.B{fill:#ffffa1}.C{fill:#ffff6e}.D{fill:#ffff7f}.E{fill:#ffff5d}.F{fill:#ff8}.G{fill:#ffffbf}.H{fill:#ffa}.I{fill:#ffff20}.J{fill:#ffffe2}.K{fill:#ffffd4}.L{fill:#ffff63}.M{fill:#ff5}.N{fill:#ffffb8}.O{fill:#ffff40}.P{fill:#fff}.Q{fill:#ffff95}.R{fill:#ffff80}</style><path class="a" d="m592.1 59.9c1.8 0 1.8 0 3.7 0q3.9 0 7.8 0 5.9 0 11.8 0c12.9 0 25.7 0.2 38.6 1.1q1.5 0 3 0 1.2 0.5 2.3 1c2.9 1.1 5.2 1.3 8.2 1.5 9.1 0.7 17.8 1.7 26.4 4.9 2.3 0.6 4.1 0.7 6.3 0.7 3.7-0.1 5.5 0.5 8.8 1.9 2.7 0.2 2.7 0.2 5 0q0 1 0 2 1.6-0.2 3.2-0.3c5.4-0.1 9.7 2.1 14.6 4.1 3.5 1.3 6.4 1.7 10.1 1.9 3.3 0.5 6 1.9 9 3.4 2.9 1.3 5.9 1.5 9.1 1.9q2.5 1.5 5 3c1.7 0.2 1.7 0.2 3.4 0.4 3.6 0.6 3.6 0.6 6.5 2.5 3.4 2.3 6 2.9 10 3.5 2.5 0.7 3.3 1.8 5.1 3.6 2.3 0.9 2.3 0.9 4.9 1.5 3.8 1.1 6.8 2.2 10.1 4.5q1.5 1 3 2 0 1 0 2 3 0.5 6 1 0 1 0 2 1.6 0.4 3.2 0.8c3.6 1 5.9 2.7 8.8 5.2q2 1 4 2 1 1 2 2 1.2 1 2.5 2c2.5 2 2.5 2 4.5 4q3.9 3.2 7.8 6.4c3.9 3.3 7.1 6.6 10.2 10.6q1 1.3 2.1 2.6c0.9 1.2 0.9 1.2 1.9 2.4q1.1 1.3 2.2 2.6c1.8 2.4 1.8 2.4 1.8 5.4q1.5 0.5 3 1c1.5 2.3 1.5 2.3 3 5q0.8 1.2 1.6 2.4c2.1 3.8 3.4 7.2 3.4 11.6q1 0 2 0c1.7 3.3 3.3 6.3 4 10q0.2 0.9 0.5 1.9c0.4 1.7 0.7 3.4 1 5.2 0.4 2.9 0.4 2.9 1.5 5.9q0.1 3.3 0.1 6.7-0.1 1.7-0.1 3.6c0 1.3 0 1.3 0 2.7-3.9 2.2-6.6 3.4-11 3q0-1 0-2-1 0-2 0c-1.3-1.7-2.5-3.4-3.7-5.1-1.4-2.1-1.4-2.1-3.6-4.6-1.7-2.3-1.7-2.3-2.2-4.5-0.3-2-0.3-2-2.6-3.1-0.9-0.3-0.9-0.3-1.9-0.7q0-1.5 0-3c-0.9-0.4-0.9-0.4-1.8-0.8-2.5-1.4-3.5-2.8-5.2-5.2q-2.5-2.5-5-5-5.5-5.5-11-11-1.1-1.1-2.2-2.2-2.1-2.1-4.2-4.4c-2.4-2.4-2.4-2.4-5.1-3.9-3-1.8-5.1-4-7.5-6.5q-2-1.6-4-3c-0.9-0.7-0.9-0.7-1.8-1.4-2.2-1.6-4.5-3-6.9-4.4-12.6-7.5-12.6-7.5-16.3-11.2q-2.8-1.6-5.6-3.1-1.5-0.8-3.1-1.7c-1.1-0.6-1.1-0.6-2.3-1.2q0-1 0-2c-1.5-0.4-1.5-0.4-3.1-0.8-3.8-1-6.6-3-9.9-5.2-2-0.7-2-0.7-4-1-4.8-1.7-4.8-1.7-6-4q-1.1-0.2-2.2-0.4c-3.3-0.7-5.9-1.9-8.8-3.6q-0.5-1-1-2c-1.5 0.5-1.5 0.5-3 1-2.3-1-2.3-1-4.8-2.4-3.9-2-6.9-2.9-11.2-3.6q-2-1-3.9-2c-3.7-1.9-7-2.6-11.1-3q-1-0.5-2-1-2 0-4 0-0.5-1-1-2-1.2 0.1-2.5 0.2c-4.8-0.3-8.9-1.8-13.4-3.4-4.9-1.7-8.9-2-14.1-1.8-3-0.4-5.7-1.2-8.6-2.1-3.4-1.1-3.4-1.1-7.4-0.9-2.4 0-4.4-0.8-6.7-1.6-3.5-0.6-7-0.5-10.5-0.4q-3.9 0.1-7.8 0-0.5-0.5-1-1-3-0.1-5.9-0.1-1.9 0-3.9 0-2.1 0-4.2 0-2.1 0-4.2 0-4.5 0-9 0-5.7 0-11.5 0-4.4 0-8.8 0-2.1 0-4.3 0-2.9 0-5.9 0-1.7 0-3.4 0c-2.5 0.1-4.5 0.4-6.9 1.1q-3 0.1-6.1 0.1c-1.7 0-1.7 0-3.5-0.1q-3.7 0-7.4 0c-5.8-0.1-11.3-0.1-17 1q0 0.5 0 1-1.8 0-3.7-0.1c-2.5 0-4.6 0.2-7.1 0.7-2.2 0.4-2.2 0.4-5.2-0.6q-2.9 0.4-5.8 0.9c-3.4 0.7-6.7 1.2-10.2 1.2-2.9-0.2-2.9-0.2-4.9 0.4-2.1 0.5-2.1 0.5-6 0.4-5.4-0.1-10.5 1.2-15.8 2.4-3.8 0.8-7.5 1.3-11.3 1.7q-1.5 0.3-3 0.6c-3.7 0.5-7.2 0.5-11 0.4q0 1 0 2-1.3-0.1-2.7-0.1c-3.2-0.1-3.2-0.1-5.7 1.1-3.3 1.3-6.1 1-9.6 1-2.1 0.9-2.1 0.9-4 2q-2.5 0.5-5 1-2 0.5-3.9 1c-2.4 0.6-4.6 1.1-7 1.4-2.9 0.6-4.9 1.4-7.5 2.6-3.9 1.8-7.4 2.4-11.6 3q-1.2 0.7-2.5 1.5c-3.1 1.9-5.9 2-9.5 2.5q-0.5 1-1 2c-1.8 0.9-1.8 0.9-3.9 1.7q-1.1 0.4-2.2 0.8c-1.9 0.5-1.9 0.5-3.9-0.5q-0.5 1-1 2c-4 1.9-7.6 3.3-12 4q0 1 0 2-1.5 0-3 0-0.5 1-1 2c-2 1.3-2 1.3-4.4 2.7q-1.2 0.7-2.5 1.4c-1 0.4-1 0.4-2.1 0.9q-1-0.5-2-1-0.5 1.5-1 3c-1.8 1.4-1.8 1.4-4 2.8q-1.2 0.8-2.5 1.6-1.2 0.8-2.5 1.6c-10.2 6-10.2 6-18.5 14.1-1.5 1.9-1.5 1.9-4.5 2.9q-2.1 1.9-4 4c-3.2 3.3-6.4 6.2-10 9-1.3 1.4-1.3 1.4-2.7 2.8-2.3 2.2-2.3 2.2-4.3 2.2q-0.4 0.9-0.8 1.8c-1.3 2.3-2.6 3.8-4.6 5.7q-0.9 0.9-1.9 1.8-0.8 0.9-1.7 1.7c-2.2 2.2-4.2 4.2-6.1 6.7-1.9 2.3-1.9 2.3-3.9 3.3-1.9 2.8-1.9 2.8-3 5q-1 0-2 0-0.3 1.1-0.6 2.2c-1.4 2.7-2.2 3.6-4.5 5.4-3.1 2.1-3.1 2.1-3.9 5.4q-1 1-2 2c-1 1.5-1 1.5-1.9 3.1q-1.1 1.4-2.1 2.9-1.5 0-3 0 0.5 1.5 1 3-1.5 0.5-3 1-0.5 2-1 4c-1.4 1.7-1.4 1.7-3 3q-1 0-2 0c-0.1 0.8-0.1 0.8-0.2 1.6-1.2 3.5-3.4 5.7-5.8 8.4q-2.2 2.8-4.2 5.8-0.7 1-1.4 1.9-0.6 1-1.2 1.9-0.6 0.7-1.2 1.4-1 0-2 0 0 1 0 2-2.4 2.6-5 5 0.5 1.5 1 3c1.1 0.2 1.1 0.2 2.1 0.4 8.4 1.8 8.4 1.8 10.9 5.6q1.3 0.2 2.7 0.4c3 0.6 4.3 1 6.8 2.6 3.1 1.9 5.8 2.5 9.5 3q2 1 4 2 2.5 0.6 5 1 0 1 0 2 1.6 0.2 3.2 0.4c3.3 0.5 4.9 1.2 7.8 2.6q1.8 0.2 3.6 0.5c3.4 0.5 3.4 0.5 6.4 2.5q1-0.5 2-1 0.8 0.7 1.6 1.4c2.4 1.8 2.4 1.8 5.5 2 3.5 0.5 5.8 1.3 9 2.7 3.9 1.6 6.6 2.1 10.9 1.9q3 0.9 6 2 1.5 0 3 0 0.5 1 1 2 3.1 0.3 6.1 0.6c3.4 0.5 6.5 1.4 9.8 2.4 5.3 1.6 10.2 2.5 15.8 2.8 2.9 0.3 5.5 1.2 8.3 2.2q1.6 0 3.2 0 1.4 0 2.8 0 1 1 2 2c2.1 0.2 2.1 0.2 4.5 0.1 4.3-0.2 4.3-0.2 6.5 0.9q2.7 0.5 5.5 0.9c3.9 0.7 7.7 1.4 11.6 2.2 4.6 1 9 1 13.6 0.9 2.3 0 2.3 0 4.3 1q3.5 0.6 7 1 1 0.2 2.1 0.3c3.6 0.6 6.4 0.6 9.9-0.3q1.5 1 3 2c7.1 1.6 14.7 1.1 21.9 1 5.9-0.1 5.9-0.1 8.1 1q3.7 0.1 7.3 0c4.5-0.1 8.4 0.1 12.7 1q3 0.1 6 0c5.5-0.1 5.5-0.1 8.3 0.5 3 0.6 5.9 0.6 9 0.6q1.8 0 3.8 0 2 0 4 0 2.1 0 4.2 0 4.4 0 8.8 0 5.6 0 11.2 0 4.3 0 8.6 0 2.1 0 4.2 0 2.9 0 5.7 0 1.7 0 3.4 0c2.4-0.1 4.4-0.5 6.8-1.1 3.8-0.1 7.6 0 11.5 0.1 3.3 0 3.3 0 5.5-0.6 3.2-0.8 6.4-0.6 9.7-0.5q3.6 0.1 7.3 0 0.5-0.5 1-1c3.5-0.1 6.9 0 10.4 0.1 3.3-0.1 6.3-0.3 9.6-1.1q0.5-1 1-2 1.5 0.5 3 1c2.4-0.5 2.4-0.5 5-1.3 3.9-1.1 7.7-2 11.7-2.7 3.4-0.6 6.4-1.3 9.5-2.6 4.1-1.5 6.6-1.7 10.8-1.4q0.5-1 1-2c1.9-0.6 1.9-0.6 4.2-1.1q1.2-0.2 2.4-0.4 2.4-0.5 4.9-0.9c2.6-0.6 4.9-1.5 7.4-2.6 3.7-1.5 7.1-2.4 11.1-3q1-1 2-2c1.8-0.6 1.8-0.6 4-1 1.1-0.3 1.1-0.3 2.3-0.5q1.1-0.3 2.3-0.6c1.1-0.2 1.1-0.2 2.3-0.5 2.1-0.4 2.1-0.4 5.1-0.4q0-1 0-2c3.9-1.2 6.9-2 11-2q0-1 0-2 1.1-0.2 2.2-0.4c2.7-0.5 2.7-0.5 4.8-1.6 2-1 2-1 4.2-1.4 2.7-0.6 4.8-1.5 7.3-2.7 3.3-1.5 5.8-2.4 9.5-1.9q0-1 0-2c6-2 6-2 8.9-2.9 2.6-0.9 4.5-1.9 6.7-3.2 3.4-1.9 3.4-1.9 7.4-1.9q1-1 2-2 3-1.1 6-2 1-0.5 2-1 0.9-0.2 1.9-0.4c2.2-0.5 2.2-0.5 4-2.2 2.8-1.9 4.8-1.6 8.1-1.4q0-1 0-2c6.5-2.8 6.5-2.8 9.6-4 2.6-1 2.6-1 5.6-2.6 2.8-1.4 2.8-1.4 4.8-1.4q0.5-1 1-2 3-1 6-2 2.5-1.5 5-3 1.7-0.7 3.5-1.4c3.5-1.4 3.5-1.4 6.2-3.8q1.2-0.9 2.3-1.8 1.5 0.5 3 1 0.5-1.5 1-3c2.1-1 2.1-1 5-2q1.6-0.7 3.2-1.4c7-3 15.1-6.4 22.8-4.6 3.9 2.3 6.5 4.6 8 9q-0.5 1.5-1 3-1 0-2 0-0.5 1.5-1 3-1 0-2 0-0.5 1-1 2-2 1.5-4.1 2.8c-3 2-6 3.9-8.8 6.1-3.1 2.1-3.1 2.1-5.1 2.1q-0.5 1.5-1 3c-1.9 1.3-1.9 1.3-4.3 2.6q-1.2 0.6-2.4 1.3c-2.4 1.1-4.8 2.2-7.3 3.1q0 1 0 2-1.1 0.4-2.2 0.8c-2.9 1.1-2.9 1.1-5.2 3.3-3.1 2.3-4.8 2.2-8.6 1.9q-0.5 1-1 2c-1.9 1.2-1.9 1.2-4 2q-1-0.5-2-1-0.5 1-1 2-2.5 1.1-5 2-1.3 0.6-2.7 1.1c-2.3 0.9-2.3 0.9-4.3 0.9q-1 1-2 2c-2.6 1.1-5.1 2-7.8 2.9-2.6 0.9-4.8 1.9-7.3 3.2-3 1.5-5.6 2.3-8.9 2.9q-0.9 0.5-1.8 0.9c-2.6 1.3-5.2 1.8-8.1 2.5-2.9 0.8-5.5 2.3-8.2 3.7-2.6 1.2-5.1 1.5-7.9 1.9q-1 1-2 2c-1.9 0.6-1.9 0.6-4 1q-1.5 0.5-3 1-1.1 0.2-2.3 0.4c-2.8 0.6-5.2 1.7-7.8 2.8-2 0.9-4.1 1.4-6.2 1.9-3.7 0.6-3.7 0.6-5.7 2.9-2.5 0.8-5 1.1-7.6 1.4-3.5 0.3-3.5 0.3-5.4 2.6q-1 0-2 0c-0.9 0.5-0.9 0.5-1.8 1-3.1 1.4-5.9 1.4-9.2 1.7-2.2 0.1-2.2 0.1-4 2.3-1.9 0.6-1.9 0.6-4 1q-0.9 0.2-1.9 0.5c-2.1 0.5-2.1 0.5-4.8 0.9-2.7 0.5-5 1.1-7.6 2-4.1 1.5-8.3 2.4-12.6 3.1-2.3 0.4-2.3 0.4-4.1 2.5-2.3 0.6-4.6 1-7 1.2-3.8 0.4-6.7 1-10 2.8q-2.5 0.6-5 1-1.3 0.3-2.7 0.6c-2.3 0.4-2.3 0.4-4.3-0.6q0 1 0 2-1.1 0.1-2.2 0.2c-1.3 0.1-1.3 0.1-2.7 0.2q-1.4 0.2-2.8 0.3c-2.3 0.1-2.3 0.1-3.3 1.3q-1.6 0.2-3.2 0.4c-3.7 0.5-3.7 0.5-6.9 1.7-3.1 1-5.6 1.1-8.9 0.9q-0.5 1-1 2c-2.3 0.3-2.3 0.3-5.2 0.5-3.2 0.2-5.7 0.5-8.7 1.6-5 1.5-10 1-15.1 0.9q-0.5 1-1 2c-1.8 0.4-1.8 0.4-4.1 0.6-2.9 0.2-5.7 0.5-8.5 1-3.4 0.4-3.4 0.4-7.2 0.3-3.3-0.3-3.3-0.3-5.2 2.1-2.4 0.1-2.4 0.1-5.2 0-4.7-0.1-8.3 0.6-12.8 2q-3.5 0.1-7 0-1.5 0.2-3.1 0.5c-5.5 0.7-11.1 0.8-16.7 1-4.5 0.2-8 0.6-12.2 2.5q-1.5 0-3 0 0-1 0-2-1 0.5-2.1 1c-3.4 1.2-6.2 1.2-9.8 1.1-3.5-0.1-6.6-0.2-10 0.4-2.9 0.5-5.7 0.6-8.7 0.6q-1.6 0-3.3 0-1.7 0-3.5 0-1.8 0-3.6 0-3.8 0-7.7 0-5.8 0-11.5 0-3.8 0-7.5 0-1.7 0-3.4 0c-6.8 0-13.4-0.3-20.1-0.9-2.3-0.2-4.6-0.2-6.9-0.2-2.9 0-2.9 0-5.1-0.6-1.8-0.6-1.8-0.6-3.7 0.2-2.1 0.4-2.1 0.4-4.2-0.5-3.6-1.4-7.1-1.5-10.8-1.7q-2.3-0.1-4.6-0.2-1.1 0-2.3-0.1-4.9-0.2-9.9-0.5-1.6-0.1-3.2-0.2c-3.1-0.4-3.1-0.4-6.2-1.4-2.9-1-5-1.2-8.2-1-2.5 0.1-2.5 0.1-4.7 0q-1-1-2-2c-1.9-0.2-1.9-0.2-4.1 0-4.2 0.1-7.9-0.5-12-1.6-2.1-0.5-2.1-0.5-4.9-0.4q0-1 0-2-1.4-0.1-2.8-0.1c-7.1-0.4-12.7-1.1-19.2-3.9q-1 0.5-2 1-0.5-1-1-2c-2-0.4-2-0.4-4.3-0.5-3.6-0.3-6.3-1-9.7-2.5q-4-1-8-2c-9.8-2.3-9.8-2.3-14-4q-0.5-1-1-2c-0.9 0.3-0.9 0.3-1.8 0.6-2.7 0.5-3.7-0.1-6.1-1.5-2.5-1.3-4.1-2.1-7-2.5-4-0.8-7.1-2.5-10.6-4.4-2.6-1.2-4.8-1.8-7.5-2.2-3.7-0.6-3.7-0.6-5.4-2.5-2.1-2-3.8-2.1-6.6-2.5q0-1 0-2-0.9-0.2-1.8-0.4-1.2-0.2-2.5-0.5-1.1-0.2-2.3-0.5c-3.5-0.9-5.8-2-8.4-4.6q-1.2-0.5-2.4-0.9c-2.6-1.1-3.7-2.2-5.6-4.1-0.9-0.2-0.9-0.2-1.8-0.4-2.7-0.7-4.3-1.9-6.5-3.5q-1-0.8-2.1-1.6-0.8-0.8-1.6-1.5 0-1 0-2-1-0.4-1.9-0.7c-2.1-1.3-2.1-1.3-2.9-3.4-0.1-1-0.1-1-0.2-1.9q-1 0-2 0 0-1 0-2-1-0.5-2-1c-1.6-1.4-1.6-1.4-3-3q0-1 0-2-1-0.5-2-1 0-1.5 0-3-1-0.5-2-1 0-4 0-8 1-0.5 2-1 1.6-3.5 3-7 1.5 0 3 0 0-2 0-4 1 0 2 0 0-1.5 0-3 2.5-2.5 5-5 1.3-1.9 2.6-3.8 1.2-1.6 2.4-3.2 1.5 0 3 0-0.5-1.5-1-3 1.5-1.5 3-3 1-1.1 2.1-2.2c1.9-1.8 1.9-1.8 3.9-1.8q0.2-0.9 0.3-1.8c0.8-2.6 1.7-3.4 3.7-5.2q1-1.2 2-2.5c2-2.5 2-2.5 3.5-4 1.5-1.5 2.8-3.1 4.2-4.7 2.9-3.5 6.1-6.3 9.6-9.1 1.8-1.8 2.6-3.4 3.7-5.7 1.5-1.3 2.9-2.5 4.4-3.7 1.9-1.5 1.9-1.5 4.3-4 2.3-2.3 2.3-2.3 5.3-3.3q0.4-0.9 0.9-1.8c1.5-2.9 3.5-4.2 6.1-6.2q1.3-1.3 2.6-2.6c2.2-2.2 3.7-3.1 6.4-4.4q2.1-1.9 4-4c2.3-2.4 4.2-4.2 7-6q0.5-1 1-2 1.5 0 3 0c0.5-1.5 0.5-1.5 1-3q1.5 0 3 0c0.5-1.5 0.5-1.5 1-3q1 0 2 0 2.5-2.5 5-5c2-1 2-1 5-2 0.5-1.5 0.5-1.5 1-3q1-0.5 2-1 1.5-1 3-2 1.5 0 3 0 0.5-1 1-2 1.7-1.4 3.6-2.6 0.9-0.7 1.9-1.4c0.7-0.5 0.7-0.5 1.5-1q1 0.5 2 1 0.5-1.5 1-3 2.5-1.6 5-3 1-1 2-2 1.5 0 3 0 0-1 0-2c1.4-0.4 1.4-0.4 2.8-0.8 3.1-1.1 4-1.9 6.2-4.2q1.5 0 3 0c1-1 1-1 2-2 3-1.6 5.5-2.9 8.8-3.6q1.1-0.2 2.2-0.4 0.5-1 1-2c2.1-1.2 3.5-2 6-2q0.5-1 1-2 2-0.5 4-1 2-1 4-2 1.2-0.5 2.4-0.9c2.7-1.1 2.7-1.1 5.7-2.7 2.9-1.4 2.9-1.4 6.9-1.4 1-1 1-1 2-2 3.2-1 6.3-1.9 9.6-2.4 2.5-0.5 2.5-0.5 4.9-2 4.4-2 8.5-2.5 13.3-3.1 3.2-0.5 6.1-1.4 9.2-2.5 5-1.4 9.7-2.3 15-2q0.5-1 1-2 1.4 0.1 2.9 0.1c4.8 0 9.4-1.1 14.1-2.1 3.4-0.6 6.8-1.1 10.2-1.5 3.7-0.4 3.7-0.4 6.8-1.5q3-0.6 6.1-1.1 1.5-0.3 3.2-0.6c2.7-0.3 2.7-0.3 4.7 0.7q0-1 0-2c1.6 0.1 1.6 0.1 3.3 0.2 4.6 0 8.6-1.2 13-2.5 3.9-1 7.7-1.4 11.7-1.7q1.6-0.1 3.2-0.3 4.4-0.4 8.8-0.7 0-1 0-2 1.4 0.1 2.9 0.1c3 0 5.7-0.4 8.6-1.1 3.9-1 7.4-1 11.5-1 4.9-0.7 9.6-1.5 14.3-3.1 3.1-1 5.5-1 8.7-0.9q1.1-0.2 2.2-0.5c4.5-0.8 8.9-0.9 13.4-1.1 3.2-0.4 5.4-1.2 8.4-2.4 2.8-0.2 2.8-0.2 5.7-0.1 3.6 0.2 7.1 0 10.7-0.4 6.2-0.6 12.4-0.6 18.7-0.6z"/><path class="b" d="m198 348q0.5 0.5 1 1 1.8 0 3.7-0.1c3.8 0 6.7 0.8 10.3 2.1 1.5-0.1 1.5-0.1 3.1-0.2 2.9 0.2 2.9 0.2 5.8 2.7q1 1.2 2.1 2.5c-1 3.6-1.7 4.8-4.8 6.8-3 1.1-5 1.5-8.2 1.2q-0.5 1-1 2-2.5-0.5-5-1 0 1 0 2-1.2 0.4-2.5 0.8c-2.7 0.9-5 1.9-7.6 3.3-3 1.5-5.6 2.3-8.9 2.9q-1 1-2 2c-3.8 2.2-6.5 3.4-11 3q0 1 0 2-1.3 0.4-2.7 0.8c-3.1 1.1-5.5 2.5-8.3 4.2q-3.4 1.5-6.8 3c-2.6 1.2-4.8 2.6-7.2 4q-1 0-2 0c-1 1-1 1-2 2q-2.5 1-5 2-2.5 1.5-5 3-1 0.5-2 0.9c-2.1 1.1-2.1 1.1-4.2 2.9-4.4 3.5-9.3 6.2-14.6 8.3-2.8 1.2-4.8 2.9-7.2 4.9-2.3 1.5-4.6 2.8-7.1 3.9-2.1 1.1-2.1 1.1-4 3.2q-0.9 0.9-1.9 1.9-1 0-2 0-2 2-4 4c-3 2-3 2-6 3-0.5 1.5-0.5 1.5-1 3q-1 0-2 0-2.6 2.4-5 5-2.5 2.5-5 5-1.3 1.3-2.6 2.6c-7.4 7.4-7.4 7.4-9.1 9.1-2.4 2.4-4.2 5.1-5.8 8q-0.7 1.2-1.5 2.3-1.5 0-3 0-0.2 1.1-0.4 2.2c-0.6 2.6-1.2 4.5-2.6 6.8q-1 0.5-2 1c-0.6 3.4-1 6.6-1 10q0 1.5 0 3 1-0.1 1.9-0.3 1.3-0.1 2.5-0.3 1.3-0.1 2.5-0.3 1.1 0 2.1-0.1 0.5 0.5 1 1c0.8-0.3 0.8-0.3 1.6-0.6 10.6-3.7 22-3.6 33.1-3.3 3.2-0.1 6.2-0.8 9.3-1.6 2.3-0.6 4.7-1 7-1.5q0 1 0 2 1-0.3 2-0.7c1.3-0.4 1.3-0.4 2.7-0.8 1.3-0.4 1.3-0.4 2.6-0.8 2.7-0.7 5-0.8 7.7-0.7q0.9-0.2 1.9-0.5c2.1-0.5 2.1-0.5 5.3-0.4 5.7-0.1 11-1.6 16.5-3.2 5.2-1.4 9.9-2 15.3-1.9q0.5-1 1-2 3-0.6 6-1 2-0.5 4-1 1.3-0.2 2.6-0.5c2.4-0.4 2.4-0.4 4.4-1.5q2-0.5 4-1c1.7-0.5 1.7-0.5 3.4-1 3.6-1 3.6-1 6.4-1.5 2.4-0.3 2.4-0.3 4.2-2.5q1.5 0.5 3 1 0-1 0-2 1.7-0.4 3.5-0.8c3.9-0.9 7.2-2.4 10.7-4.3 1.8-0.9 1.8-0.9 4.8-1.9q0.9-0.7 1.8-1.4c2.2-1.6 2.2-1.6 5.3-2.6 3-1 3.7-1.8 5.9-4q1.9-1.3 3.9-2.6 1-0.6 2.1-1.2 2-1.2 4.1-2.3c2.1-1 3.4-2.2 4.9-3.9q1 0.5 2 1c0.3-1.1 0.3-1.1 0.7-2.1 1.3-2.9 2.9-5 5-7.3 2-2.4 3.6-5 5.3-7.6 2-2 2-2 4-3 1-1.8 1-1.8 2-4q1.5-3 3-6 1 0 2 0 0.5-1.5 1-3c3-2 5.4-2.2 9-2q0.5 0 1 0c-0.3-3-0.3-3-1-6q-1-0.5-2-1 0.1-2.9 0.3-5.9 0.1-1.6 0.2-3.3 0.2-1.4 0.5-2.8c3.1-2.1 3.7-2.2 7.2-2.1q1.9 0 3.8 0.1 0.5 1.5 1 3c1.5-0.5 1.5-0.5 3-1 2.2 0.9 2.2 0.9 4 2q0 1 0 2 1.8 0.4 3.6 0.7c4.1 1.1 6.9 2.9 10.4 5.3 2.6 0.7 2.6 0.7 5 1 2.2 0.4 2.2 0.4 4 1q0.5 1 1 2 3 0.6 6 1 1 0.5 2 1 0 1 0 2 2-0.5 4-1 0.5 1 1 2c1.2 0.2 1.2 0.2 2.5 0.4 3.1 0.5 5.1 1.3 7.9 2.6 4.3 2 7.9 2.5 12.6 3q3 1 6 2 2 0 4 0 0 1 0 2 0.9 0 1.9-0.1c5.3-0.1 9.9 0.4 15 1.7 2.4 0.5 2.4 0.5 6 0.4 3.1 0 3.1 0 6.1 2 7.8 1.3 15.9 1.1 23.8 1.1q1.7 0 3.3 0 3.4 0 6.8 0 5.2 0 10.3 0c11 0 21.9 0 32.8-1.1q0-1 0-2 1.9 0.1 3.9 0.1c4.3 0 8-0.6 12.1-1.7 2.4-0.5 4.6-0.6 7-0.4q0.5-1 1-2 1.3 0.1 2.6 0.1c3.6-0.1 6-0.9 9.4-2.1q2.1-0.5 4.2-0.9c4.7-1 9-2.6 13.4-4.4 2.4-0.7 2.4-0.7 5.4 0.3q0.5-1 1-2c2-0.9 2-0.9 4.4-1.7 1.2-0.4 1.2-0.4 2.4-0.8 2.2-0.5 2.2-0.5 5.2 0.5q0-1 0-2 3 0 6 0 0.5-1 1-2 2.5-0.6 5-1c1.5-0.5 1.5-0.5 3-1q2.9-0.7 5.9-1.4c2.2-0.6 4.3-1.3 6.5-2.1 2.8-0.9 5.2-1.6 8.1-2.1q1.2-0.2 2.5-0.4 0.5-1 1-2c1.8-0.6 1.8-0.6 4-1q1.1-0.2 2.1-0.4c1.2-0.3 1.2-0.3 2.3-0.5 2.8-0.6 4.9-1.2 7.5-2.6 2.9-1.4 4.9-1.9 8-2.4 4.3-0.8 7.5-2.2 11.3-4.3 2.3-1.1 4.3-0.9 6.8-0.8q1-1 2-2c2.6-0.1 5-0.2 7.6-0.1 1.1 0 1.1 0 2.2 0q2.6 0 5.2 0.1 0 1.5 0 3 1 0 2 0c-1 5-2 7.7-6.3 10.9-7.8 5.1-7.8 5.1-10.7 5.1q-1 1-2 2c-3.6 1.7-7.1 2.4-11 3q0 1 0 2c-3.8 1.4-6.9 2.2-11 2q-0.5 1.5-1 3c-2.7 0.8-5.3 1.4-8 2q-1.1 0.3-2.1 0.6c-1.9 0.4-1.9 0.4-3.9 0.4q0 1 0 2c-5 1-5 1-7.3 1.3-2.5 0.7-4.3 1.5-6.6 2.7-5 2.6-9.5 3-15.1 3q0 1 0 2-2.9 0.8-5.9 1.5c-1.6 0.4-1.6 0.4-3.3 0.8-2.8 0.7-2.8 0.7-4.8 0.7q-0.5 1-1 2c-3.8 1.2-7.8 1.7-11.7 2.4-2.5 0.5-2.5 0.5-5.3 2.6-1.9 0.6-1.9 0.6-3.9 1.1q-1 0.2-2.1 0.4-1 0.3-2 0.5-2 0.5-4 1 0 0.5 0 1c-4.7 1.2-9.2 2.2-14 3q-1 0.5-2 1-2 0.5-4 1-3.7 1.2-7.5 2.4c-2.6 0.6-4.8 0.7-7.5 0.6q-0.5 1-1 2-0.8 0-1.7-0.1-1.2 0-2.4 0-1.1-0.1-2.2-0.1c-2.8 0.1-2.8 0.1-5.5 1.2-5.7 1.6-11.6 1.3-17.4 1.3q-1.9 0-3.9 0-4 0-8.1 0-5.1-0.1-10.3 0-4.9 0-9.9 0c-1.8 0-1.8 0-3.7 0-6.1-0.1-11.8-0.4-17.8-1.9-3.1-0.6-6-0.5-9.1-0.4q-0.5-1-1-2-0.9 0-1.8 0.1c-4.9 0.1-8.6-0.3-13.2-2.1-4.8-1.6-9.5-3.1-14.6-3.4-4.3-0.4-7.5-1.9-11.4-3.8-2.5-1-4.4-0.9-7-0.8q-3.5-0.9-7-2 0-1 0-2c-0.9-0.1-0.9-0.1-1.9-0.1q-1.2-0.2-2.4-0.3-1.2-0.1-2.4-0.2c-2.3-0.4-2.3-0.4-5.3-2.4q-3-0.6-6-1 0-1 0-2-1.3 0-2.7 0.1c-4.9-0.1-8.8-1.2-13.3-3.1-1.5-0.5-1.5-0.5-3.1-0.9-2.8-1.1-4.6-2.3-6.9-4.1q-1 0-2 0c0.1 1.6 0.1 1.6 0.1 3.2-0.1 4.6-0.8 7.5-4.1 10.8-0.7 1.5-0.7 1.5-1.4 2.9-1.5 2.8-2.5 4-4.6 6.1q-1.5 1.9-2.9 3.9c-5.4 7.3-5.4 7.3-9 9-2.3 1.1-2.3 1.1-4.3 3.3-5 5-10.6 9.2-16.8 12.8q-1.8 1.3-3.6 2.6c-2.4 1.7-4.7 3.1-7.4 4.4q-1.5 1-3 2-2 1-4 2-2.5 1.5-5 3c-4.7 2.9-8.5 5.1-14 6q0 1 0 2c-1.3 0.4-1.3 0.4-2.7 0.9-3.9 1.3-7.5 2.6-11 4.8q-1.1 0.6-2.3 1.3-1-0.5-2-1-0.5 1-1 2c-3.5 2.1-7.1 2.7-11.1 3.4q-0.9 0.3-1.9 0.6-0.5 1-1 2c-1.7 0.5-1.7 0.5-4 1q-3 0.7-5.9 1.4c-1.6 0.4-1.6 0.4-3.1 0.8-3 0.7-3 0.7-5.6 1.8-3.3 1.4-6.7 1.8-10.2 2.4-2.4 0.4-2.4 0.4-4.2 2.6q-2.5 0-5 0-1.4 0.5-2.9 1c-3.2 1-5.8 1.2-9.1 1q-0.5 1-1 2-1.5-0.5-3-1c-2.2 0.3-2.2 0.3-4.6 0.9-3.5 0.7-6.9 1.3-10.5 1.7-3.7 0-3.7 0-4.9 1.4q-2.8 0.1-5.5 0.1-1.8 0-3.6 0c-2 0-2 0-3.9 0q-2 0-4 0-4.2 0-8.4 0-5.4 0-10.8 0-4.1 0-8.2 0-3 0-5.9 0c-1.8 0-1.8 0-3.6 0q-1.6 0-3.2 0c-2.8-0.1-5.2-0.5-7.9-1.1-1.4-0.2-1.4-0.2-2.9-0.4-6.2-0.9-11-1.7-16.1-5.6-2.8-4.7-2.3-9.9-2.3-15.2q0-1.3 0-2.7c0.1-8.2 0.6-16.2 5.3-23.1q0.7-1.7 1.5-3.5c1.3-3 2.8-5.7 4.5-8.5q1-2 2-4 1.5 0 3 0 0.5-2 1-4 1 0 2 0 0.2-0.9 0.3-1.9c0.7-2.1 0.7-2.1 3.7-4.1q0.6-1.1 1.3-2.3c1.7-2.8 3.6-4.5 6.2-6.5 3.3-2.7 6.2-5.8 9.1-9 2.4-2.2 2.4-2.2 6.4-2.2q0-1.5 0-3 1.5-1 3-2 1.1-0.8 2.3-1.6c4.4-3.2 8.8-6 13.7-8.4q2.5-2 5-4 2-1 4-2 2.5-1.5 5-3c6.1-3.6 6.1-3.6 9.2-5.1 1.9-0.9 1.9-0.9 3.7-2.5 2.1-1.4 2.1-1.4 4.5-1.8 3.4-0.8 5.7-2.6 8.6-4.6q1 0 2 0c0.5-1 0.5-1 1-2 2-0.9 2-0.9 4.4-1.6q1.2-0.4 2.5-0.8c2.1-0.6 2.1-0.6 4.1-0.6q0-1 0-2 1-0.4 2.1-0.8c6.1-2.5 6.1-2.5 12-5.3 1.9-0.9 1.9-0.9 4.6-1.4 1.1-0.2 1.1-0.2 2.3-0.5q0.5-1 1-2c2.1-1.2 3.5-2 6-2q1-1 2-2c2.7-1.5 5.5-2.8 8.4-3.9 3.2-1.3 5.9-3.2 8.7-5.2 1.9-0.9 1.9-0.9 4.9 0.1q0.5-1.5 1-3 1.7-0.2 3.4-0.4 1.8-0.3 3.6-0.6 0.5-1 1-2c3.4-2.3 5-2.3 9-2z"/><path class="b" d="m1046 205c2 2 2 2 4 4q-0.5 1-1 2-1 0-2 0 0 1.5 0 3-1 0.5-2 1-0.5 2.5-1 5c-4.3 10.8-4.3 10.8-9 14q-0.5 1-1 2.1c-1 1.9-1 1.9-4 2.9q-0.5 1.5-1 3-1.5 0-3 0-0.5 1-1 2c-4 3.1-7 4.3-12 5q-0.5 1-1 2c-4.3 2-4.3 2-7 2q-1 1-2 2c-3.8 1.8-7.7 2.6-11.8 3.5-2.8 0.6-5.5 1.6-8.2 2.5-3.5 1.1-6.8 2-10.5 2.4-3.6 0.5-3.6 0.5-6.8 2.1-4 1.6-7.2 1.9-11.4 2.3-2.8 0.2-4.8 1.1-7.3 2.2-5.9 2.3-10.7 3.3-17 3q-0.5 1-1 2c-2.2 0.6-2.2 0.6-5 1-4.1 0.6-4.1 0.6-8 2q-3 0.1-6 0 0 1 0 2-1.8 0.4-3.7 0.9c-3.2 0.8-6.2 1.8-9.3 3.1-7 3-7 3-9.4 3.9-3 1.3-5.6 2.9-8.3 4.7-5.2 3.3-5.2 3.3-7.3 4.4q-0.7 0.7-1.4 1.4c-1.6 1.6-1.6 1.6-4.6 3.6-2.1 2-3.9 3.9-5.6 6.2-0.7 0.9-0.7 0.9-1.4 1.8q-1 0-2 0-0.1 0.8-0.2 1.7c-1 3-2.8 4.9-4.8 7.3q-1 1.5-2 3c-1.9 2.8-3.9 5.4-6 8q-1 1.3-2.1 2.7c-1.9 2.3-1.9 2.3-3.9 4.3q-1 1.5-2 3c-2 3-2 3-4 5-0.7 1.2-0.7 1.2-1.4 2.4-1.6 2.6-3.4 4.4-5.6 6.6q-2 3-4 6-1 1-2 2-1 1.5-2 3.1-1 1.4-2 2.9-1 0-2 0 0 1.5 0 3-1 0-2 0-0.5 1.5-1 3-1 1-2 2c-1.5 2.2-3 4.5-4.5 6.8-1.9 2.7-3.5 4.7-6.5 6.2q-0.5 1.5-1 3-1 1-2 2-0.7 1.2-1.5 2.5c-1.5 2.5-1.5 2.5-3.5 4.5q-0.7 1.3-1.4 2.6c-0.8 1.2-0.8 1.2-1.6 2.4q-1.5 0-3 0 0.5 1.5 1 3-0.6 0.6-1.2 1.2c-1.9 1.9-1.9 1.9-3.9 4.5q-0.9 1.1-1.9 2.3-1 0-2 0-0.1 0.8-0.2 1.7c-1 3.1-2.7 4.8-4.8 7.3q-1.4 1.9-2.9 3.8-0.7 1-1.5 2.1-0.8 1-1.6 2.1c-8.8 11.8-8.8 11.8-13 16q-0.9 1.2-1.8 2.4c-2.5 2.9-5.2 5.2-8.2 7.6-3.2 2.5-6 4.9-8.6 8.1-2.4 2.8-4.3 4-7.4 5.9q-1.4 1.6-2.7 3.2-1.1 1.4-2.3 2.8-1 0-2 0c-1 1.2-1 1.2-1.9 2.5-1.1 1.2-1.1 1.2-2.1 2.5q-1.5 0-3 0c-0.4 1.2-0.4 1.2-0.8 2.4-1.4 3-2.2 3.4-5.2 4.6q-1 1-2 2-1-0.5-2-1-1 2.5-2 5-1.5-0.5-3-1-0.1 0.9-0.2 1.8c-1.1 3.1-2.9 3.6-5.8 5.2q-3.1 2.3-6.1 4.7c-1.9 1.3-1.9 1.3-4.9 2.3q-0.5 1-1 2c-9.9 9-9.9 9-16 9q-0.5 1.5-1 3c-3.3 3.1-5.6 4.3-10 5q-0.5 1-1 2-1 0-2 0c-0.6 0.7-0.6 0.7-1.3 1.4-2.1 2-4 2.6-6.7 3.6q-2.5 1.5-5 3c-3.3 1.9-6.3 2.5-10 3q0 1 0 2-3 0.7-6.1 1.4c-2.1 0.5-2.1 0.5-3.9 2.6-1.9 0.6-1.9 0.6-4.2 1.1q-1.1 0.2-2.2 0.4c-6.2 1.1-12.1 1.7-18.3 1.6q-1.1 0-2.2 0c-3.6 0-6.8 0-10.1-1.1-5-5.4-6.1-11.9-6-19q0-1.5 0-3 1 0 2 0c0-0.9 0-0.9-0.1-1.8q0-1.2 0-2.4-0.1-1.2-0.1-2.4c0.2-2.7 0.9-4.1 2.2-6.4 1.9-4.4 3.6-8.8 5.1-13.4 0.8-2.3 1.8-4.4 2.9-6.6q1-2.5 2-5 1 0 2 0c-0.5-1.5-0.5-1.5-1-3q1.5 0 3 0-0.5-1.5-1-3c0.9-2.2 0.9-2.2 2-4q1 0 2 0 0.4-1.6 0.8-3.2c1-3.6 2.8-5.9 5.2-8.8 0.7-2.1 0.7-2.1 1-4q0.5-1 1-2 1 0 2 0 0.1-1.3 0.3-2.7c0.8-3.8 2.2-5.4 4.7-8.3 1.4-2.3 2.7-4.5 3.9-6.9 1.6-3.1 3.4-6.1 5.1-9.1 0.8-1.4 0.8-1.4 1.6-2.7 1.4-2.3 1.4-2.3 2.8-3.6 1.9-2 3.2-4.2 4.5-6.6 1.6-2.7 3.2-5.2 5.2-7.7 2.8-3.5 4.8-7.4 6.9-11.4q1 0 2 0 0-1.5 0-3 1-0.5 2-1 1.1-2 2-4 1.2-2 2.4-4.1c0.7-1 0.7-1 1.3-2 1.3-1.9 1.3-1.9 2.9-3.5 2.1-2.1 3.1-4.7 4.4-7.4q1-1 2-2 0.5-1 1-2 1 0 2 0 0.5-1.5 1-3c2.3-2.6 3.6-3.9 7-5q1-1 2-2c4.4-1.5 8.3-1.5 12.8-0.1 2.2 1.1 2.2 1.1 5.2 3.1q0 1.5 0 3 1 0.5 2 1c0.7 1.9 0.7 1.9 1 4q-0.5 1-1 2-1 0-2 0-0.1 1.1-0.2 2.2c-1.1 3.7-3 5.2-5.8 7.8q-0.8 1.1-1.7 2.3-0.6 0.8-1.3 1.7-1 0-2 0-0.5 2-1 4-1.5 0-3 0 0.5 1.5 1 3-1.5 0.5-3 1-0.5 1.5-1 3-1 1-2 2-0.5 1-1 2-1 0-2 0 0 1.5 0 3-1 1-2 2-1.5 2.5-3 5c-5.5 9.2-5.5 9.2-9 13q-1 0-2 0-0.1 1.3-0.3 2.7c-0.8 3.8-2.2 5.4-4.7 8.3-1.2 2.7-1.2 2.7-2 5q-1 0-2 0-0.4 1.6-0.8 3.2c-1.1 3.4-2.3 5.8-4.2 8.8q-1 2-2 4-0.7 1.4-1.5 2.9c-0.8 1.6-0.8 1.6-1.6 3.2q-0.7 1.5-1.6 3.1c-1.4 2.8-1.4 2.8-2.3 5.8q-1 0-2 0c0.5 1.5 0.5 1.5 1 3-0.9 1.8-1.9 3.5-2.9 5.2-1.3 2.2-2.2 4.4-3.1 6.8q-1 2-2 4c-1.1 1.9-1.1 1.9-1.3 3.7-0.8 2.8-2.3 5-3.7 7.5-1.4 2.5-2.1 5.1-3 7.8q-1.4 2.5-3 5 1 0.5 2 1 0.6 1 1.2 2.1c1.7 2.2 1.7 2.2 4.9 2.3 3-0.1 3-0.1 4.9-2.4q3.5-1 7-2 1-1 2-2 1 0 2 0 4.1-2 8.2-4.2c1.8-0.8 1.8-0.8 4.8-0.8q0.5-1.5 1-3 1.4-0.2 2.9-0.4c1.6-0.3 1.6-0.3 3.1-0.6q0.5-1 1-2c1.8-1 1.8-1 3.9-2 2.6-1.2 4.1-2 6.1-4q1.5 0 3 0 0.5-1 1-2 2.3-1.7 4.7-3.4 1.3-0.9 2.7-1.9 1.3-0.8 2.6-1.7 0.9-0.6 1.8-1.3c2.3-1.6 4.4-2.8 7-3.8 1.1-0.4 1.1-0.4 2.2-0.9q0.5-1.5 1-3 1.5 0 3 0 1-2 2-4 1 0 2 0c1.5-1.5 1.5-1.5 3.1-3.5 3.4-4 7.1-7.4 11.2-10.8q0.8-0.9 1.7-1.7 0-1 0-2 1 0 2 0 0.3-0.8 0.7-1.7c1.7-2.9 3.9-4.9 6.3-7.3 1.3-2.2 1.3-2.2 2-4q1 0 2 0c0.2-0.9 0.2-0.9 0.3-1.9 0.7-2.1 0.7-2.1 3.7-4.1q1.5-2.5 3-5 2-2 4-4 2-2.5 4-5c1.7-1.8 2.8-2.9 5-4q1.5-2.5 3-5 1.5-1.5 3-3 0.8-1.1 1.6-2.2 0.7-0.9 1.4-1.8 1 0 2 0 0.1-0.9 0.2-1.7c1.1-3.2 3.2-4.3 5.8-6.3q1.5-2.5 3-5 1.5-0.5 3-1 0.5-1.5 1-3 1.9-2.6 4-5 0.7-0.9 1.5-1.8 0.7-0.9 1.5-1.9 0.7-0.9 1.4-1.7c1.8-1.8 3.5-2.5 5.6-3.6q0.5-2 1-4 1.5-0.5 3-1 0.2-1 0.5-2 0.2-1 0.5-2 1.5-0.5 3-1c0.6-1.9 0.6-1.9 1-4q1-1 2-2c0.7-0.8 0.7-0.8 1.5-1.6 1.5-1.4 1.5-1.4 3.5-1.4q-0.5-1.5-1-3 1.4-1.1 2.9-2.2c2.5-2.1 3.8-3.8 5.1-6.8q1.5-1.5 3-3 0.5-1.5 1-3 1.5-1.5 3-3 1.5-2.5 3-5 1-1 2-2 1.5-2.5 3-5c0.8-1.3 0.8-1.3 1.6-2.6 1.4-2.3 1.4-2.3 2.5-4.6 0.9-1.8 0.9-1.8 2.9-3.8q1.1-2.5 2-5 1 0 2 0c0.1-0.8 0.1-0.8 0.2-1.6 1.3-3.9 4.1-7.5 7.8-9.4q0-1 0-2 1-0.5 2-1 1.5-2.5 3-5 1-1 2-2 1.4-1.6 2.8-3.3c7.1-8.3 7.1-8.3 11.2-9.7q1.5-2.5 3-5 1 0 2 0 0.9-0.9 1.8-1.9c2.6-2.4 4.8-3 8.2-4.1q0.5-1.5 1-3c2.6-0.3 5.3-0.7 8-1q0-1 0-2c8.3-1.9 8.3-1.9 12.4-2.5 2.8-0.3 2.8-0.3 4.6-2.5 2.7-0.6 2.7-0.6 6-1 4.7-0.5 4.7-0.5 9-2q1.2-0.2 2.4-0.4c3.2-0.5 6.1-1.3 9.1-2.2 4-1.1 7.4-1.7 11.5-1.4q0.5-1 1-2c2.9-0.8 5.8-1.1 8.8-1.4q1.6-0.3 3.2-0.6 0.5-1 1-2 1.1 0.1 2.2 0.2c2.9 0 2.9 0 5.2-1.6 3.2-1.9 5.9-2.1 9.6-2.6q1-1 2-2c6.2-2 6.2-2 9-2q1-1 2-2 3-1 6-2c3-1.3 6-2.5 8.9-3.9 1.7-0.8 3.4-1.4 5.1-2.1q1 0.5 2 1 0.5-1.5 1-3 1 0.5 2 1 0-1 0-2 1.3-0.4 2.7-0.8c3.2-1 3.2-1 5.6-2.6 3.2-1.9 6.3-2.8 9.8-3.9 2.1-0.5 2.1-0.5 2.9-2.7 2.6-0.6 2.6-0.6 5-1q0-1 0-2c3.5-3.5 8.3-4.6 13-6z"/><path class="b" d="m1025.4 65.4c1.6 0.1 1.6 0.1 3.3 0.2 8.4 0.9 8.4 0.9 11.3 2.4q0.9 0.2 1.8 0.4c3.2 0.9 6.2 2.1 9.2 3.6q0 1 0 2c1.4 0.2 1.4 0.2 2.8 0.3 4.4 1 5.4 2.7 8.1 6.1 2 2.7 2 2.7 4.5 4.5 3.1 2.5 5.3 4.9 7.6 8.1q0 2 0 4 1 0 2 0 1.5 3.5 3 7c0.5 1.2 0.5 1.2 1.1 2.5 1.8 4.5 3.4 8.6 3.9 13.5 0.1 1 0.1 1 0.2 2 0.9 7.5 1 14.9 1 22.5q0 1.9 0 3.8c0 7.2-0.5 13.7-2.2 20.7q-0.2 1.3-0.4 2.7c-0.6 2.3-0.6 2.3-3.6 4.3-1.5 2.4-1.5 2.4-2.9 5.2-9.6 18-9.6 18-17.1 21.8-4.3 0.5-6.2 0.6-9.7-2.1-2.3-2.9-4.3-5.8-6.3-8.9-2.3-3.4-2.3-3.4-6-5q-0.2 0.8-0.4 1.7c-0.7 2.5-1.6 4.9-2.6 7.3q-1 0-2 0 0 1.5 0 3-1.5 0-3 0 0.5 1.5 1 3-0.8 0.6-1.7 1.2c-2.4 1.8-2.4 1.8-4.6 4.3-4.3 3.9-8.4 5.7-14.1 5.7q-1.8-0.1-3.6-0.2c-1.3-2.9-2-4.8-2-8q-1 0-2 0-0.1-1-0.2-2c-0.6-6.5-0.6-6.5-1.8-13-1.6 2.5-2.9 4.8-4 7.6-1 2.4-1 2.4-2.6 4.4-1.6 1.9-1.6 1.9-1.8 4.3-0.7 3.2-1.9 4.9-3.9 7.4q-0.9 1.1-1.8 2.3c-1.9 2-3.4 2.9-5.9 4-0.7 0.8-0.7 0.8-1.5 1.6-2.7 2.5-5.4 2.4-8.9 2.8-3.6-0.4-3.6-0.4-6.3-2.3-3.4-4.6-6.7-10-5.9-15.9q0.3-1.1 0.6-2.2-1 0-2 0c-0.5-3.5-0.5-3.5-1-7q-1.7 2.3-3.4 4.7-1 1.3-2 2.6c-1.6 2.7-2.1 4.6-2.6 7.7-5.2 11.4-5.2 11.4-9 14-2.7-0.3-2.7-0.3-5-1-1.8-5.3-1.4-10.9-1.4-16.5q-0.1-1.8-0.2-3.7c-0.1-8.7 1.5-14.7 6.6-21.8 2.4-2.4 2.4-2.4 5-4q0.8-0.6 1.6-1.2c3.3-2.2 5.2-2.8 9.2-2.5 3.2 1.7 3.2 1.7 4.4 5q0.4 1.8 0.8 3.7 0.8 1.3 1.6 2.6c1.6 2.8 2 5.2 2.4 8.4q1 0 2 0 0 1.5 0 3 1 0.5 2 1 1.2 1.9 2.4 3.9c1.8 3.1 3.4 5.2 6.6 7.1 2.2-0.9 2.2-0.9 4-3 0.2-2.7 0.2-2.7 0-5.7-0.1-4.8 0.3-8.7 2-13.3q0.5-1.6 1-3.2c1.3-3.6 2.8-6.6 5-9.8q1 0 2 0 0-1.5 0-3c4.7-2.5 9.8-2.6 15-2q1.5 1 3 2 0 1 0 2 1 0 2 0 0.4 1.6 0.7 3.2c1.1 3.6 2.9 5.9 5.3 8.8q0.5 2 1 4 1.5 1 3 2 0 1 0 2 1.5-0.5 3-1 0.2-1.3 0.4-2.7 0.3-1.7 0.5-3.5 0.3-1.7 0.6-3.5 0.6-4.2 1.5-8.3 0.2-1.4 0.4-2.8 0.3-1.1 0.6-2.2 1-0.5 2-1 0.8-1.3 1.6-2.6c2.4-2.4 2.4-2.4 6.1-2.5q2.2 0.3 4.3 0.7 1.1 0.1 2.2 0.3c4.9 0.7 8.3 1.6 11.8 5.1q1.5 1 3 2 0 1 0 2 1.5-0.5 3-1 0.5 0 1 0c1.9-7.7 2.2-15.1 2.1-23q0-1.7 0-3.4 0-4.3-0.1-8.6 0-1 0-2-0.2-2.2-0.4-4.4-0.2-1.1-0.3-2.3c-0.3-2.3-0.3-2.3-0.8-4.3-0.5-2-0.5-2-0.5-6q-1-1-2-2-0.6-2-1-4-0.5-1.5-1.1-3.1c-0.9-2.9-0.9-2.9-0.9-4.9q-0.9-0.4-1.8-0.8c-2.2-1.2-2.2-1.2-3.6-3.2-2-2.5-3.7-2.9-6.6-4q-0.5-1-1-2c-2.7-0.6-2.7-0.6-6-1-7-1-7-1-9.9-1.6-11.6-1.6-24.1-0.1-35.6 2.2-3.9 0.6-7.6 0.5-11.5 0.4q0 1 0 2c-1.6-0.1-1.6-0.1-3.2-0.1-3.6-0.1-3.6-0.1-6.1 1.1-2.7 1-4.1 1.1-7 1-10.6-0.2-21.4 1.4-31.7 4q-3.5 0.7-7 1.4c-2.2 0.6-4 1.5-6 2.6q-2.5 1-5 2-1.8 0.8-3.6 1.6c-3.4 1.4-3.4 1.4-7.4 1.4-0.5 1-0.5 1-1 2q-1 0-2 0-1 1-2 2c-3.6 1.7-7.1 3-11 4q-3.5 1.5-7 3c-3 1-3 1-6 1q-1 1-2 2c-5.6 1-11.5 1.6-17 0q-0.5-1-1-2-0.9-0.4-1.9-0.8c-2.8-1.6-3.6-3.3-5.1-6.2q-0.6-1.1-1.2-2.3c-1.6-5.4-1.5-10.7 1.2-15.7 4.1-6.6 4.1-6.6 7-9q1 0 2 0 0-1 0-2c0.8-0.1 0.8-0.1 1.6-0.3 2.6-0.6 2.6-0.6 5.3-2.7 3.1-2 4.6-2.3 8.1-3 2.5-1 5-2.1 7.5-3.2 2.7-0.9 4.7-1 7.5-0.8q0.5-1 1-2 1 0 2 0 0 1 0 2 1.8-0.7 3.7-1.5c3.2-1.2 5.8-1.7 9.3-1.5q0.5-0.5 1-1 2.7-0.1 5.4 0c5.9 0.1 11.7-0.4 17.6-1q0-1 0-2 0.8 0.3 1.6 0.6c3.1 0.5 5.3 0 8.4-0.6q4.4-0.4 8.7-0.7c2.3-0.1 2.3-0.1 3.3-1.3q3.8-0.1 7.6-0.1c1 0 1 0 2.1 0.1q2.7 0 5.3 0 0-0.5 0-1c2.3 0 4.6 0 7 0q0-0.5 0-1c2.3 0 4.6 0 7 0q0 1 0 2 1-0.5 2-1 4.2-0.3 8.4-0.5 2.3-0.1 4.6-0.2c1-0.1 1-0.1 2-0.1 2-0.2 2-0.2 4-0.7 4.1-1 8.5-0.5 12.7-0.4 3.1 0 3.1 0 5.3-0.6 2.9-0.7 5.5-0.4 8.4-0.1z"/><path class="c" d="m570.7 101.8q1.3 0 2.6 0 2.7 0 5.4 0 4.1-0.1 8.1-0.1c11.1-0.1 20.8 0.7 31.3 4.4 3 1 3 1 6.8 1.3 3.9 0.4 6.8 1.8 10.3 3.7 2.2 1.1 4.3 1.6 6.8 1.9q2 0.5 4 1 0 1 0 2 2.5 0 5 0 0 1 0 2c1.5-0.5 1.5-0.5 3-1 6.7 2.4 6.7 2.4 8 5q1.1 0.2 2.2 0.4c3.5 0.7 5.1 2.4 7.8 4.6 2.1 0.7 2.1 0.7 4 1q1.5 0.5 3 1 0 1 0 2 2 0 4 0 0 1 0 2 0.8 0.2 1.6 0.3c3.3 0.9 6.3 2.3 9.4 3.7q0 1 0 2 1 0 2 0 0 1 0 2 1.4 0.2 2.7 0.4c4.1 0.8 6.4 1.7 9.3 4.6q2.1 1.2 4.2 2.4c2.9 1.5 5.7 3.1 8.4 4.9 3.6 1.8 6.4 2.3 10.4 2.7q1.5 0.5 3 1c7.2 0.3 11.9-0.9 17.3-5.6 1.7-1.4 1.7-1.4 4.7-2.4 2.2 0.9 2.2 0.9 4 2-0.5 4.3-2.9 6.2-6 9-6.1 4.1-11.7 5.2-19 5.3q-1.8 0-3.7 0c-3.6-0.3-4.7-1-7.3-3.3q-1.4-0.2-2.9-0.4c-3.8-0.7-6-2.4-9.1-4.6q-2-1-4-2-3.8-2.3-7.6-4.6c-2.1-1.2-4.2-2.3-6.4-3.4q-2-1-4-2 0-1 0-2-1.4-0.2-2.8-0.3c-3.4-0.7-4.5-1.6-7.2-3.7q-1.8-0.7-3.7-1.5c-1.6-0.7-1.6-0.7-3.3-1.5q-0.5-1.5-1-3-0.9 0.3-1.8 0.7c-2.2 0.3-2.2 0.3-4.1-0.7q-0.8-0.7-1.7-1.4c-2.4-2.1-2.4-2.1-5.4-2.6q0-1 0-2-1.5 0.5-3 1c-2.7-0.8-4.5-1.5-6.4-3.6-2.3-2.1-4.6-2.1-7.6-2.4q0-1 0-2c-2 0.5-2 0.5-4 1q-0.5-1-1-2-2.4-0.3-4.9-0.6c-2.5-0.5-4.5-1.4-6.7-2.5-3.4-1.5-5.6-2.2-9.4-1.9-2.7-0.4-4.9-1-7.4-2-4.9-1.9-8.6-2.1-13.6-1q-1-0.5-2-1-2.5-0.1-5.1-0.1c-1.5 0-1.5 0-3.1 0q-1.5 0-3.2 0-1.5 0-3.2 0-1.5 0-3 0-1.4 0-2.9 0c-2.5 0-2.5 0-4.8 0.7q-0.8 0.2-1.7 0.4-0.5-0.5-1-1c-3.7 0.4-7.1 1-10.8 2.1-3.2 0.9-3.2 0.9-6.2-0.1q0 1 0 2c-3 0-5.9 0-9 0q-0.5 1-1 2c-4.1 1.2-8 2-12.3 2.5-3.2 0.4-4.9 1-7.7 2.5q-1.5 0-3 0-2.1 0.4-4.1 0.9c-4.1 1-8 1.5-12.2 1.8q-0.8 0.1-1.7 0.3-0.5 1-1 2c-2.3 0.6-2.3 0.6-5 1q-1.2 0.2-2.5 0.5-2.6 0.5-5.2 1c-2.3 0.4-2.3 0.4-4.3 1.5q-2.5 0.5-5 1-2.2 0.5-4.4 1c-2.8 0.6-5.6 1.1-8.5 1.5-3.3 0.3-3.3 0.3-6.1 2.5-2.3 0.6-4.6 1-6.9 1.1-5.8 0.5-10.5 2-15.8 4.2-2.3 0.7-2.3 0.7-4.3-0.3q0 1 0 2-3 0-6 0c-0.5 1-0.5 1-1 2q-2.5 0.6-5 1-3 1-6 2-1 0.2-2.1 0.4c-2.1 0.6-2.1 0.6-4.3 2.1-2.9 1.7-5.3 2-8.6 2.5-0.5 1-0.5 1-1 2-3.9 1.3-6.9 2-11 2q0 1 0 2c-5.4 2.9-5.4 2.9-8.5 3.4-2.7 0.5-2.7 0.5-5.5 2.6-3 2-4.6 2.4-8 3q-1.2 0.7-2.4 1.5c-2.9 1.7-5.3 2.1-8.6 2.5q0 1 0 2c-2.7 1.1-5.3 2.1-8 3-2.3 1.1-4.3 2.2-6.4 3.6-2.7 1.5-4.6 1.9-7.6 2.4q-1.6 0.5-3.2 1.1c-6.4 1.6-13.3 1.5-19.8-0.1q-1-1-2-2-1.5-0.9-3.1-1.9c-2.9-2.1-2.9-2.1-3.9-4.2 0-1.9 0-1.9 2-3.9 6.5 0.5 6.5 0.5 9 3q1.5 0.5 3 1 0 1 0 2c1.9-0.2 1.9-0.2 3.7-0.4q1.1-0.2 2.2-0.3c2.1-0.3 4-0.8 6.1-1.3q2.9-0.5 5.7-1.1 1.5-0.2 3-0.5 1.2-0.2 2.3-0.4 0-1 0-2c2.7-1.1 5.3-2.1 8-3 2.3-1.1 4.4-2.3 6.6-3.6 2.4-1.4 2.4-1.4 5.4-1.4 0.5-1 0.5-1 1-2 1.8-0.6 1.8-0.6 4-1 2.9-0.6 3.8-0.8 6-3q1 0.5 2 1 0-1 0-2 5-2 10-4 1.2-0.5 2.4-1 2.8-1.1 5.6-1.9c3-1 3-1 5.4-2.7 3.2-1.7 6-2 9.6-2.4q0-1 0-2c1.6-0.4 1.6-0.4 3.2-0.9 3.6-0.9 3.6-0.9 5.7-2.1 2.6-1.3 5.3-1.9 8.2-2.6 4.1-0.9 4.1-0.9 7.9-2.4q2-0.5 4-1 3.8-1.2 7.6-2.4c2.4-0.6 2.4-0.6 6.4-0.6q0.5-1 1-2 3.5-0.6 7-1 1-0.2 2-0.5c2-0.5 2-0.5 5.1-0.9 3.1-0.5 5.7-1.1 8.6-2 4.8-1.6 9.6-2.4 14.6-3.1 2.6-0.5 4.4-1.3 6.7-2.5q3-0.6 6-1 1.5-0.5 3-1 2.4-0.5 4.7-0.9c4.2-0.9 8.2-1.9 12.3-3.1 2.5-0.7 4.7-1.1 7.2-1.4 3.8-0.5 3.8-0.5 7.3-2 5.1-2.1 10.5-2.5 16-3.1 3.2-0.5 5.6-1.2 8.5-2.5q3-0.6 6-1 1-0.3 1.9-0.5c3.6-0.8 7.2-0.7 10.8-0.7zm1.3 6.2q0 0.5 0 1c6.6 0 13.2 0 20 0q0-0.5 0-1c-6.6 0-13.2 0-20 0z"/><path class="d" d="m558.5 183.9q1.9-0.1 3.9-0.1 2.1 0 4.2 0 2.1 0 4.3 0 4.6 0 9.1 0 5.8 0 11.6 0 4.5 0 9 0 2.1 0 4.3 0c8-0.1 15.3 0.3 23.1 2.2 3.5 0.8 3.5 0.8 7 1q0.5 1 1 2 3.5 0.6 7 1 2 0.5 4 1 0 1 0 2 1-0.1 2.1-0.2c3.6 0.2 5.7 1.5 8.9 3.2q2.1 0.8 4.1 1.6c2.8 1 5.3 2 7.9 3.4q0 1 0 2c4 1 4 1 8 2q0 1 0 2 1.5-0.5 3-1 0.5 1 1 2 2.5 0.6 5 1c3 1 3 1 4.3 2.5 2.4 2.1 4.6 2.1 7.7 2.5q1.5 1 3 2 2 0 4 0 0 1 0 2 1.8-0.1 3.6-0.1c2.9 0 4.8 0.2 7.7 1.1 10.2 2.8 21.5 0.9 30.7-4 3.5-2.3 3.7-3.1 5-7-0.9-2.7-0.9-2.7-2-5q1-1 2-2 2 0 4 0c2.9 3.3 3.7 6.6 3.5 11-1 3.9-4.1 5.9-7.5 8-3 1.2-3 1.2-6 2q-1.6 0.5-3.2 1c-5.8 1.5-11.6 1.3-17.6 1.3q-3.3 0-6.6 0.1-2.1 0-4.2 0-1.8 0-3.8 0c-4.2-0.5-6.8-1.6-10.6-3.4q-1.7-0.2-3.4-0.4c-4.1-0.7-6.8-2.2-10.4-4.4-2.4-1.3-4.5-1.7-7.2-2.2q-3-2-6-4-2.5-0.5-5-1-2.5-1.5-5-3c-2.3-1.1-4.6-2-7-3q0-1 0-2-0.9-0.2-1.8-0.4-1.2-0.3-2.5-0.5-1.1-0.3-2.3-0.6-1.2-0.2-2.4-0.5-1.1-0.2-2.2-0.4-0.9-0.3-1.8-0.6-0.5-1-1-2-1.5-0.2-3.1-0.4c-3.9-0.6-3.9-0.6-7.2-2.1-4-1.6-7.2-2-11.4-2.3-2.5-0.2-4.9-0.7-7.3-1.2q-3.8-0.4-7.7-0.7c-2.3-0.3-2.3-0.3-5.3-1.3q-3.1-0.1-6.3-0.1-1.8 0-3.7 0-2 0-3.9 0-2 0-3.9 0-1.9 0-3.8 0c-1.7 0-1.7 0-3.4 0-2.6 0.1-4.6 0.4-7 1.1q-2.1 0.1-4.1 0c-3.7-0.3-3.7-0.3-5.9 1-2.8 0.1-5.6 0-8.5-0.1-2.5-0.1-2.5-0.1-4.5 1.1q-3 0.1-5.9 0c-10.5-0.3-10.5-0.3-20.6 2-2.9 1.2-5.1 1.2-8.3 1.1q-2.6-0.1-5.2-0.1-0.5 0.5-1 1-2.5 0-5 0-1.1 0.2-2.2 0.5c-4.2 0.8-8.5 0.6-12.8 0.5q0 1 0 2-1.5-0.5-3-1-3.4 0.6-6.8 1.4c-6.5 1.5-12.5 2.8-19.2 2.6q0 1 0 2c-2.8 0.5-2.8 0.5-5.6 0.9q-1.6 0.3-3.2 0.6-3.2 0.5-6.4 1c-2.9 0.4-2.9 0.4-5.8 2-3.1 1.6-5.6 2.1-9 2.5-3 0.6-5.3 1.6-8 3-2.5 1.1-4.7 2-7.4 2.4-2.7 0.5-2.7 0.5-5.5 2-3.1 1.6-3.1 1.6-6.7 2.6-3.2 1-5.5 2.2-8.4 4q-2.5 0.5-5 1-1.5 1-3 2c-2.8 1-5.5 1.9-8.4 2.4-2.5 0.6-4 1.4-6.2 2.7-3.4 1.9-3.4 1.9-7.4 1.9-1 1-1 1-2 2-5.2 2.5-10.3 4.1-16 5q-3.5 1.1-6.9 2.4c-2.1 0.6-2.1 0.6-5.1 0.6-1 1-1 1-2 2-2.3 0.6-2.3 0.6-5 1-1.1 0.2-1.1 0.2-2.3 0.5-2.1 0.4-4.3 0.7-6.4 0.9-4.8 0.6-9.5 1.6-14.3 2.6q-2.5 0.5-5 1c-1.1 0.3-1.1 0.3-2.2 0.5-3.3 0.6-6.3 0.6-9.6 0.6q-2 0-4 0-1 0-2 0-3.1 0-6.2 0-1.9 0-3.9 0-1.8 0-3.6 0c-5.5-0.2-10.7-1-15.9-2.5q-1.2-0.3-2.6-0.7-1-0.4-2-0.9-0.5-1.5-1-3c3.4-1.1 5.7-0.9 9.1 0 4.8 1.1 9.4 1.3 14.3 1.3q1.3 0 2.7 0 2.7 0 5.4 0 4.2 0 8.3 0.1c9.5 0 18-0.5 27.2-3.4 4.3-1 8.5-1.9 12.9-2.5 3.2-0.2 3.2-0.2 5.1-2.5 3.9-1 8-1.4 12-2q0-1 0-2c1.1 0.1 1.1 0.1 2.2 0.2 3.4-0.2 4.9-1.5 7.8-3.2q1.4-0.2 2.8-0.4c3.6-0.7 6.1-1.9 9.3-3.6 4.8-2.5 10.1-4.5 15.5-5.4 2.5-0.5 2.5-0.5 4.6-2 3.4-1.9 6.7-2.8 10.4-3.8 2.8-0.9 5-2.3 7.4-3.8q3-0.5 6-1 1-1 2-2c3-0.9 6-1.8 9.1-2.4 2.1-0.6 2.1-0.6 4.6-2.1 5.1-2.3 9.8-2.5 15.3-2.5q0-1 0-2c4.3-1 8.6-2 13-2.5q1.5-0.2 3-0.5 0.5-1 1-2 1.5 0.5 3 1 3.5-1 7-2c3.4-0.6 6.8-0.9 10.2-1.2 3.9-0.4 7.2-1.3 10.8-2.8q3.5 0 7 0 2.8-0.8 5.5-1.6c4.5-0.8 9-0.4 13.5-0.3 3.1 0.2 3.1 0.2 5-2.1q2.5 0.5 5 1 3-0.4 6-1 4.4-0.4 8.7-0.7c2.3-0.1 2.3-0.1 3.3-1.3 2.2-0.1 4.4 0 6.6 0.1 2.4 0 2.4 0 4.6-0.6 3.2-0.6 6.1-0.6 9.3-0.6z"/><path class="e" d="m639 263c1.8 0.3 1.8 0.3 4 1 1.2 0.3 1.2 0.3 2.4 0.7 4.4 2.2 7 5.6 8.6 10.3 0.6 4.2 0.9 6.6-1.5 10.3-4.6 5.4-4.6 5.4-8.5 6.7q-1 1-2 2c-6.1 2.3-11.9 2.3-18.4 2.2q-1.5 0.1-3 0.1c-6.2 0-11.6-0.7-17.6-2.3q0-1 0-2-1.3 0.1-2.6 0.2c-3.7-0.2-6-1.1-9.3-2.6-4.6-2-8.2-3.2-13.1-3.6-4.7-0.7-4.7-0.7-7-3-2.3-0.4-2.3-0.4-4.8-0.6-6.7-0.5-12.8-2.1-19.3-3.9-3-0.5-4.9-0.1-7.9 0.5-1-1-1-1-2-2-2.1-0.3-2.1-0.3-4.5-0.3q-1.4 0-2.9 0c-1.5 0-1.5 0-3.1 0q-1.5 0-3.2 0-3.3 0-6.7 0-5.1 0.1-10.1 0c-17.7 0-17.7 0-35 3.3-4.5 1.3-9.1 1.8-13.7 2.4-2.9 0.4-2.9 0.4-4.8 2.6-2.3 0.6-2.3 0.6-5 1-6.2 1-11.4 2.5-17 5.2-2.4 1-4.4 1-7 0.8q-1 1-2 2c-1.8 0.6-1.8 0.6-4.1 1q-1.2 0.2-2.4 0.5c-1.2 0.2-1.2 0.2-2.5 0.5q-2.4 0.5-4.8 1-1.1 0.2-2.2 0.4c-2 0.5-2 0.5-3.8 1.6-5.6 2.5-12.6 2.2-18.7 2.4q-1.1 0-2.3 0.1-2.5 0-4.9 0.1-3.7 0.1-7.5 0.3-2.3 0-4.7 0.1-1.1 0.1-2.2 0.1c-4.2 0.1-7.2-0.3-10.9-2.1-2.6-1.1-5.2-2.1-7.9-2.9-3.5-1.3-6.2-2.8-9.1-5.1q-0.5-1.5-1-3c3.9-1.1 5.5-1 9 1q3.5 1 7 2 1.4 0.6 2.8 1.1c2.3 1.1 2.3 1.1 5.2 0.9q1 0.5 2 1 2.6 0.1 5.2 0.1 1.6 0 3.2 0 1.6 0 3.2 0 1.6 0 3.3-0.1 4.1 0 8.1 0 0.5-1 1-2 1.1 0.3 2.2 0.6c3.1 0.5 4.9 0 8-0.9 4.5-1.4 9-2.4 13.7-3.2 2.4-0.4 2.4-0.4 5.1-2.5q4-1.1 8-2c4.2-1 8.2-2 12.2-3.6 3-1.2 5.5-1.7 8.8-1.4q0.5-1 1-2c2.3-0.6 2.3-0.6 5-1q0.9-0.2 1.9-0.5c2.1-0.5 2.1-0.5 5.3-0.9 3.1-0.5 5.5-1.1 8.4-2.2 3.3-1.1 5.9-1.6 9.4-1.4 1-0.2 1-0.2 2.1-0.5 4.5-0.8 9-0.9 13.5-1 3.5-0.2 6.4-0.5 9.8-1.5 4.6-1.3 8.8-1.2 13.5-1.1q1.3 0 2.7 0 3.2 0 6.4 0.1 0 1 0 2c1.2 0 1.2 0 2.3 0.1q5.3 0.1 10.6 0.3 1.8 0 3.7 0.1c8.7 0.3 16.4 1.4 24.6 4.1 3.7 1.2 6.8 1.5 10.8 1.4 2.1 0.9 2.1 0.9 4 2q2 0.6 4 1 1 0.3 2.1 0.6c1.9 0.5 1.9 0.5 3.9 0.4q0 1 0 2 1.1 0.1 2.2 0.1 1.3 0.2 2.7 0.3 1.4 0.1 2.8 0.2 1.1 0.2 2.3 0.4 0.5 1 1 2 3 0.4 5.9 0.7c2.6 0.4 4.7 1.3 7.1 2.3q1.5 0 3 0 0.5 0.5 1 1c2.6 0.1 5.2 0.2 7.9 0.2 1.1 0 1.1 0 2.2 0 3.8 0 5.6 0 8.9-2.2q2.5-0.5 5-1c4.3-1.8 6.4-4.2 9-8 0.2-2.6 0.2-2.6 0-5-2.9-1.3-4.8-2-8-2-2-3-2-3-1.7-5.1 0.7-1.9 0.7-1.9 1.7-2.9z"/><path class="f" d="m966.7 126.6q1.9 0 3.9 0.1c3.4 0.3 3.4 0.3 6.4 2.3q0 1 0 2 0.9 0.2 1.9 0.4c2.1 0.6 2.1 0.6 4.1 2.6q0 1.5 0 3 1 0 2 0 0 1.5 0 3 1 0 2 0 0.1 3.6 0.2 7.2 0 1 0.1 2c0 4.5-0.6 7.2-3.3 10.8q-1 1-2 2-0.9 1-1.9 2c-2.8 2.7-5.4 3.8-9.1 5-2.2-0.2-2.2-0.2-4.6-0.5-3.3-0.6-3.3-0.6-6.4 0.5-6.8-4.1-11.4-7.3-14-15-0.6-7.3-0.6-14.9 4.2-20.7 5.7-4.7 9-6.8 16.5-6.7z"/><path class="g" d="m723.6 116.4q1.8 0.2 3.6 0.3 1.4 0.2 2.8 0.3 0.5 1.5 1 3c2 0.7 2 0.7 4 1q0 1 0 2c1.1 0.4 1.1 0.4 2.3 0.7 3 1.4 4.1 2.5 5.7 5.3-1.3 3.8-2.7 4.8-6 7-5.9 0.7-11.3-1-16-4.5-4.1-3.5-7-6.4-9-11.5 3.9-4.1 6-4.1 11.6-3.6z"/><path class="h" d="m454 243c-0.6 3.5-1.7 4.9-4.4 7.1-2 1.6-3.8 3.1-5.6 4.9q-1.5 0-3 0 0 1 0 2c-5.1 1.4-11.1 2.3-16 0.1-1.6-1.1-1.6-1.1-4-3.1 2.2-6.5 2.2-6.5 5.9-8.8 1.5-0.6 1.5-0.6 3.1-1.2q1.1-0.6 2.3-1.1c7.6-2.5 14.1-1.8 21.7 0.1z"/><path class="i" d="m355 266c2.8 2.2 2.8 2.2 4 5-0.2 2.8-0.8 4.5-2 7q-2 0-4 0 0 1 0 2-1.5 0.5-3 1-1-0.5-2-1 0 1 0 2c-11.8 0.9-11.8 0.9-15.8-2.3-2.2-2.7-2.2-2.7-2.2-5.7 1.8-1.5 1.8-1.5 4-3q1-0.8 2-1.6c2.1-1.4 3.6-1.9 6-2.4 4-2 8.7-1.6 13-1zm-8 6c4 1 4 1 4 1zm-9 4c4 1 4 1 4 1z"/><path class="j" d="m498 156c3.1 2 3.1 2 5 4-0.6 3.3-1.4 5-4 7q-2 0.5-4 1-0.5 1-1 2c-3.2 1.1-5.7 1.1-9.1 1.1q-1.5 0-3.2 0c-2.7-0.1-2.7-0.1-4.7-1.1q0-1 0-2-1 0-2 0 0-1 0-2-1-0.5-2-1 0-1.5 0-3 1-0.4 1.9-0.9c2.3-0.9 2.3-0.9 3.1-3.1 1.4 0.1 1.4 0.1 2.8 0.1 3.1 0.1 3.1 0.1 5.1-1.1 3.8-1.8 8-1.6 12.1-1z"/><path class="c" d="m532.8 215.9q1.1 0 2.4 0 0.9 0.1 1.8 0.1 0.5 1 1 2 0.7 0.6 1.5 1.2c2.1 2.5 2.2 4.7 2.5 7.8q-1.5 1-3 2-0.7 1.3-1.5 2.6c-2 3.2-4 3.2-7.5 4.4-4.9-0.5-7.6-2.6-11-6-0.3-2.4-0.3-2.4 0-5 1.4-1.6 1.4-1.6 3-3q0.5-1 0.9-2.1c2.2-3.9 5.7-4.1 9.9-4zm-5.8 11.1q0.5 1.5 1 3 0-1.5 0-3-0.5 0-1 0z"/><path class="d" d="m627.1 225.2c2.2 3.2 2.3 5 1.9 8.8q-1 0-2 0 0 1.5 0 3c-4.9 2.8-9.8 2.4-15 1-3.8-2.2-6.4-4.6-8.2-8.6 0.2-2.4 0.2-2.4 1.8-4.6 6.1-4.4 15.5-3.8 21.5 0.4zm-10.1 2.8q0 1 0 2 2.5-0.5 5-1 0-0.5 0-1-2.5 0-5 0z"/><path class="c" d="m575 146c2.7 1.4 4 2.7 6 5q-1.1 1.8-2.3 3.5-0.6 1-1.2 2-0.7 0.7-1.5 1.5-2 0-4 0 0 1 0 2c-6.2 2.2-11.2 2.6-17.5-0.1q-0.7-0.4-1.5-0.9 0-1 0-2-1 0-2 0c0.1-2.2 0.1-2.2 1-5 6.7-6.3 14-7 23-6zm-11 5q0 0.5 0 1 3 0 6 0 0-0.5 0-1-3 0-6 0zm-3 1q0 1 0 2-1 1-2 2c2.7 1 3.9 1 6.7 0.2 2.4-1 2.4-1 3.3-3.2-2.6-0.3-5.3-0.7-8-1z"/><path class="k" d="m710 242c3.1 1.6 5.7 3.4 8 6q0.6 2 1 4 1 0.5 2 1-0.5 2-1 4-4 0.6-8 1c-1.8 0.2-1.8 0.2-3.6 0.4-4.2-0.5-5.9-2.1-8.9-5-1.5-1.5-1.5-1.5-3.5-2.4-0.3-2.8-0.3-2.8 0-6 3.9-3.7 8.9-4.1 14-3z"/><path class="l" d="m458.6 101.6q1.7-0.1 3.4-0.2c3 0.6 3 0.6 4.9 2.9 1.1 2.7 1.1 2.7 0.3 5.9-2.8 3.6-4.9 3.8-9.2 4.5-2 0.1-2 0.1-3 1.3-5-0.4-8.7-1.6-13-4q1.5-3 3-6 1.5 0 3 0 0-1 0-2c3.5-2.1 6.5-2.4 10.6-2.4z"/><path class="m" d="m384 122c0.1 6.8 0.1 6.8-1 9q-1 0-2 0 0 1 0 2-1.1 0.2-2.3 0.4c-2.9 0.5-2.9 0.5-5.7 2.6-5.2 0.3-9.1 0-14-2 0.8-4.8 0.8-4.8 3-7 2-0.8 2-0.8 4.3-1.5 2.6-0.8 5.2-1.7 7.8-2.7 3.4-0.9 6.4-0.9 9.9-0.8z"/><path class="n" d="m339 197q0 1.5 0 3 1.5 0.5 3 1c-1.2 3.4-2.2 5.7-5 8-4.9 1.2-10.1 1.5-15 0q0-1 0-2-1 0-2 0 0-3 0-6c6.6-4.1 11.2-6.4 19-4z"/><path class="e" d="m404 176c2.7 2.1 3.8 3.4 4.8 6.8 0.1 1.1 0.1 1.1 0.2 2.2-4.1 4.1-7 5.7-12.9 6.1-2.8-0.1-4.7-0.5-7.1-2.1-1.1-2.4-1.1-2.4-1-5 1.6-2.1 1.6-2.1 4-4 1.3-1.1 1.3-1.1 2.6-2.2 3.6-2.7 5-3.2 9.4-1.8z"/><path class="o" d="m648 93q2.2 0 4.3-0.1c1.2 0 1.2 0 2.4 0 2.3 0.1 2.3 0.1 5.3 1.1q0 1 0 2c0.9 0.4 0.9 0.4 1.8 0.9 2.2 1.1 2.2 1.1 5.2 3.1 0.4 3.1 0.4 5.2-1 8-3 1.5-5.1 0.6-8.2-0.3-2.5-1-3.6-2.3-4.8-4.7q-1.5 0-3 0c-2.2-2.5-2.2-2.5-4-5q1-2.5 2-5z"/><path class="p" d="m661 155q4.1-0.1 8.2-0.2c1.1 0 1.1 0 2.3-0.1 4.7 0 7.8 0.2 11.5 3.3q0 1 0 2 1 0 2 0-0.5 2.5-1 5c-8.9 2.6-8.9 2.6-13.4 0.1q-1.3-1-2.6-2.1-1.5 0-3 0c-2.4-2.5-3.3-4.7-4-8z"/><path class="q" d="m536 85q1.9-0.1 3.8-0.1 1.1-0.1 2.2-0.1c2 0.2 2 0.2 5 2.2 2.1 0.6 2.1 0.6 4 1q0.5 3 1 6c-4.5 4-9.2 3.9-15 4-3.7-0.4-3.7-0.4-6-1q-0.5-3-1-6 1 0 2 0 0.5-1.5 1-3 2.5-0.5 5-1-1-1-2-2zm4 1q0 1 0 2 2.5 0 5 0-0.5-1-1-2-2 0-4 0z"/><path class="r" d="m46 429q0 1.5 0 3c-1 0.5-1 0.5-2 1q1-2 2-4zm-6 5q1 1 2 2c-3.5 3-3.5 3-7 6 0-3 0-3 2.5-5.7q1.2-1.1 2.5-2.3zm-7 7q1 1 2 2c-1 0.5-1 0.5-2 1q0-1.5 0-3zm-3 4q1 0.5 2 1-1.5 0-3 0 0.5-0.5 1-1z"/><path class="s" d="m416 445c9.9 0 19.8 0 30 0q0 0.5 0 1c-9.9 0-19.8 0-30 0q0-0.5 0-1z"/><path class="t" d="m269 253c3.6 0 7.3 0 11 0q0 0.5 0 1c-3.6 0-7.3 0-11 0q0-0.5 0-1z"/><path class="u" d="m720 225c3.6 0 7.3 0 11 0q0 0.5 0 1c-3.6 0-7.3 0-11 0q0-0.5 0-1z"/><path class="v" d="m405 419c3 0 5.9 0 9 0q0 0.5 0 1c-3 0-5.9 0-9 0q0-0.5 0-1z"/><path class="w" d="m445 419c2.6 0 5.3 0 8 0q0 0.5 0 1c-2.6 0-5.3 0-8 0q0-0.5 0-1z"/><path class="x" d="m559 183c2.6 0 5.3 0 8 0q0 0.5 0 1c-2.6 0-5.3 0-8 0q0-0.5 0-1z"/><path class="y" d="m996 169c2.3 0 4.6 0 7 0q0 0.5 0 1c-2.3 0-4.6 0-7 0q0-0.5 0-1z"/><path class="z" d="m79 486q3 0 6 0 0 0.5 0 1-3 0-6 0 0-0.5 0-1z"/><path class="x" d="m440 318q3 0 6 0 0 0.5 0 1-3 0-6 0 0-0.5 0-1z"/><path class="x" d="m533 191q3 0 6 0 0 0.5 0 1-3 0-6 0 0-0.5 0-1z"/><path class="x" d="m483 171q3 0 6 0 0 0.5 0 1-3 0-6 0 0-0.5 0-1z"/><path class="t" d="m963 126q3 0 6 0 0 0.5 0 1-3 0-6 0 0-0.5 0-1z"/><path class="A" d="m81 518q2.5 0 5 0 0 0.5 0 1-2.5 0-5 0 0-0.5 0-1z"/><path class="B" d="m501 359q2.5 0 5 0 0 0.5 0 1-2.5 0-5 0 0-0.5 0-1z"/><path class="C" d="m350 359q2.5 0 5 0 0 0.5 0 1-2.5 0-5 0 0-0.5 0-1z"/><path class="s" d="m377 294q2.5 0 5 0 0 0.5 0 1-2.5 0-5 0 0-0.5 0-1z"/><path class="D" d="m532 277q2.5 0 5 0 0 0.5 0 1-2.5 0-5 0 0-0.5 0-1z"/><path class="D" d="m488 277q2.5 0 5 0 0 0.5 0 1-2.5 0-5 0 0-0.5 0-1z"/><path class="E" d="m478 270q2.5 0 5 0 0 0.5 0 1-2.5 0-5 0 0-0.5 0-1z"/><path class="F" d="m608 183q2.5 0 5 0 0 0.5 0 1-2.5 0-5 0 0-0.5 0-1z"/><path class="s" d="m649 92q2.5 0 5 0 0 0.5 0 1-2.5 0-5 0 0-0.5 0-1z"/><path class="G" d="m43 518c4 1 4 1 4 1z"/><path class="t" d="m397 418c4 1 4 1 4 1z"/><path class="D" d="m428 317c4 1 4 1 4 1z"/><path class="x" d="m387 301c4 1 4 1 4 1z"/><path class="D" d="m359 294c4 1 4 1 4 1z"/><path class="t" d="m339 282c4 1 4 1 4 1z"/><path class="x" d="m538 270c4 1 4 1 4 1z"/><path class="H" d="m478 90c4 1 4 1 4 1z"/><path class="I" d="m639 85c4 1 4 1 4 1z"/><path class="w" d="m911 73c4 1 4 1 4 1z"/><path class="G" d="m539 63c4 1 4 1 4 1z"/><path class="D" d="m119 513c3 1 3 1 3 1z"/><path class="J" d="m124 481c3 1 3 1 3 1z"/><path class="t" d="m458 418c3 1 3 1 3 1z"/><path class="K" d="m606 318c3 1 3 1 3 1z"/><path class="t" d="m613 317c3 1 3 1 3 1z"/><path class="L" d="m392 313c3 1 3 1 3 1z"/><path class="H" d="m387 312c3 1 3 1 3 1z"/><path class="D" d="m315 299c3 1 3 1 3 1z"/><path class="M" d="m615 288c3 1 3 1 3 1z"/><path class="z" d="m459 282c3 1 3 1 3 1z"/><path class="M" d="m483 278c3 1 3 1 3 1z"/><path class="z" d="m562 274c3 1 3 1 3 1z"/><path class="M" d=""/><path class="N" d="m708 258c3 1 3 1 3 1z"/><path class="M" d="m299 245c3 1 3 1 3 1z"/><path class="M" d="m967 224c3 1 3 1 3 1z"/><path class="t" d=""/><path class="t" d=""/><path class="t" d=""/><path class="H" d="m487 196c3 1 3 1 3 1z"/><path class="L" d="m470 193c3 1 3 1 3 1z"/><path class="K" d="m622 191c3 1 3 1 3 1z"/><path class="z" d="m476 121c3 1 3 1 3 1z"/><path class="H" d="m954 100c3 1 3 1 3 1z"/><path class="M" d="m675 90c3 1 3 1 3 1z"/><path class="D" d="m395 87c3 1 3 1 3 1z"/><path class="N" d="m476 73c3 1 3 1 3 1z"/><path class="M" d="m507 68c3 1 3 1 3 1z"/><path class="D" d="m693 67c3 1 3 1 3 1z"/><path class="M" d="m511 67c3 1 3 1 3 1z"/><path class="M" d="m670 63c3 1 3 1 3 1z"/><path class="t" d="m549 62c3 1 3 1 3 1z"/><path class="O" d="m619 546c2 1 2 1 2 1z"/><path class="t" d=""/><path class="G" d="m142 508c2 1 2 1 2 1z"/><path class="D" d="m156 504c2 1 2 1 2 1z"/><path class="D" d=""/><path class="t" d="m128 480c2 1 2 1 2 1z"/><path class="O" d=""/><path class="t" d=""/><path class="O" d="m184 467c2 1 2 1 2 1z"/><path class="t" d="m479 441c2 1 2 1 2 1z"/><path class="t" d="m494 437c2 1 2 1 2 1z"/><path class="G" d="m356 436c2 1 2 1 2 1z"/><path class="t" d="m337 431c2 1 2 1 2 1z"/><path class="D" d="m530 426c2 1 2 1 2 1z"/><path class="O" d="m547 421c2 1 2 1 2 1z"/><path class="D" d="m306 421c2 1 2 1 2 1z"/><path class="t" d="m490 414c2 1 2 1 2 1z"/><path class="G" d="m509 409c2 1 2 1 2 1z"/><path class="G" d="m345 409c2 1 2 1 2 1z"/><path class="t" d="m543 399c2 1 2 1 2 1z"/><path class="G" d="m573 390c2 1 2 1 2 1z"/><path class="O" d="m604 380c2 1 2 1 2 1z"/><path class="t" d="m620 375c2 1 2 1 2 1z"/><path class="t" d="m144 371c2 1 2 1 2 1z"/><path class="t" d="m154 366c2 1 2 1 2 1z"/><path class="t" d="m571 350c2 1 2 1 2 1z"/><path class="D" d="m290 350c2 1 2 1 2 1z"/><path class="G" d="m287 349c2 1 2 1 2 1z"/><path class="D" d="m269 345c2 1 2 1 2 1z"/><path class="O" d="m621 340c2 1 2 1 2 1z"/><path class="t" d="m249 340c2 1 2 1 2 1z"/><path class="O" d="m661 330c2 1 2 1 2 1z"/><path class="O" d="m676 326c2 1 2 1 2 1z"/><path class="t" d="m361 308c2 1 2 1 2 1z"/><path class="O" d="m670 303c2 1 2 1 2 1z"/><path class="G" d="m334 303c2 1 2 1 2 1z"/><path class="G" d="m683 299c2 1 2 1 2 1z"/><path class="O" d="m295 294c2 1 2 1 2 1z"/><path class="D" d="m701 293c2 1 2 1 2 1z"/><path class="D" d="m713 289c2 1 2 1 2 1z"/><path class="D" d="m404 289c2 1 2 1 2 1z"/><path class="P" d="m278 289c2 1 2 1 2 1z"/><path class="t" d="m628 288c2 1 2 1 2 1z"/><path class="P" d="m440 287c2 1 2 1 2 1z"/><path class="O" d="m564 282c2 1 2 1 2 1z"/><path class="O" d="m914 278c2 1 2 1 2 1z"/><path class="G" d="m456 274c2 1 2 1 2 1z"/><path class="G" d="m952 268c2 1 2 1 2 1z"/><path class="D" d="m969 264c2 1 2 1 2 1z"/><path class="D" d="m892 260c2 1 2 1 2 1z"/><path class="Q" d="m716 258c2 1 2 1 2 1z"/><path class="t" d="m933 250c2 1 2 1 2 1z"/><path class="P" d="m310 249c2 1 2 1 2 1z"/><path class="t" d=""/><path class="D" d="m313 248c2 1 2 1 2 1z"/><path class="D" d="m252 245c2 1 2 1 2 1z"/><path class="R" d="m435 241c2 1 2 1 2 1z"/><path class="D" d="m319 241c2 1 2 1 2 1z"/><path class="t" d="m337 236c2 1 2 1 2 1z"/><path class="G" d="m373 229c2 1 2 1 2 1z"/><path class="R" d="m971 224c2 1 2 1 2 1z"/><path class="G" d="m737 224c2 1 2 1 2 1z"/><path class="R" d="m712 224c2 1 2 1 2 1z"/><path class="t" d="m386 224c2 1 2 1 2 1z"/><path class="P" d="m375 222c2 1 2 1 2 1z"/><path class="t" d="m693 212c2 1 2 1 2 1z"/><path class="t" d="m415 207c2 1 2 1 2 1z"/><path class="D" d=""/><path class="K" d=""/><path class="D" d="m430 202c2 1 2 1 2 1z"/><path class="P" d="m459 201c2 1 2 1 2 1z"/><path class="t" d=""/><path class="D" d="m450 197c2 1 2 1 2 1z"/><path class="t" d="m475 192c2 1 2 1 2 1z"/><path class="D" d=""/><path class="Q" d=""/><path class="t" d="m329 173c2 1 2 1 2 1z"/><path class="G" d=""/><path class="t" d="m1041 163c2 1 2 1 2 1z"/><path class="t" d="m1035 163c2 1 2 1 2 1z"/><path class="O" d="m749 162c2 1 2 1 2 1z"/><path class="D" d="m722 162c2 1 2 1 2 1z"/><path class="G" d="m674 154c2 1 2 1 2 1z"/><path class="t" d=""/><path class="t" d="m411 147c2 1 2 1 2 1z"/><path class="D" d=""/><path class="t" d="m406 140c2 1 2 1 2 1z"/><path class="D" d="m441 138c2 1 2 1 2 1z"/><path class="G" d="m462 133c2 1 2 1 2 1z"/><path class="O" d="m456 126c2 1 2 1 2 1z"/><path class="O" d="m459 125c2 1 2 1 2 1z"/><path class="O" d="m646 123c2 1 2 1 2 1z"/><path class="G" d="m503 123c2 1 2 1 2 1z"/><path class="G" d="m379 121c2 1 2 1 2 1z"/><path class="D" d="m889 119c2 1 2 1 2 1z"/><path class="D" d="m501 115c2 1 2 1 2 1z"/><path class="D" d="m542 114c2 1 2 1 2 1z"/><path class="t" d="m460 114c2 1 2 1 2 1z"/><path class="D" d="m518 111c2 1 2 1 2 1z"/><path class="t" d="m385 110c2 1 2 1 2 1z"/><path class="O" d="m387 109c2 1 2 1 2 1z"/><path class="K" d="m540 106c2 1 2 1 2 1z"/><path class="D" d="m927 104c2 1 2 1 2 1z"/><path class="P" d="m404 104c2 1 2 1 2 1z"/><path class="t" d="m592 101c2 1 2 1 2 1z"/><path class="t" d="m571 101c2 1 2 1 2 1z"/><path class="t" d="m454 101c2 1 2 1 2 1z"/><path class="t" d="m959 99c2 1 2 1 2 1z"/><path class="t" d="m986 95c2 1 2 1 2 1z"/><path class="O" d="m371 92c2 1 2 1 2 1z"/><path class="t" d="m679 91c2 1 2 1 2 1z"/><path class="t" d="m473 91c2 1 2 1 2 1z"/><path class="t" d="m753 82c2 1 2 1 2 1z"/><path class="D" d="m423 82c2 1 2 1 2 1z"/><path class="P" d="m885 77c2 1 2 1 2 1z"/><path class="Q" d="m453 77c2 1 2 1 2 1z"/><path class="t" d="m918 72c2 1 2 1 2 1z"/><path class="t" d="m662 62c2 1 2 1 2 1z"/><path class="t" d=""/><path class="t" d=""/><path class="P" d=""/><path class="t" d=""/><path class="P" d=""/><path class="t" d=""/><path class="P" d=""/><path class="t" d=""/><path class="t" d=""/><path class="P" d=""/><path class="P" d=""/><path class="t" d=""/><path class="P" d=""/><path class="t" d=""/><path class="R" d=""/><path class="t" d=""/><path class="t" d=""/><path class="R" d=""/><path class="t" d=""/><path class="P" d=""/><path class="t" d=""/><path class="t" d=""/><path class="t" d=""/><path class="t" d=""/><path class="R" d=""/><path class="t" d=""/><path class="t" d=""/><path class="t" d=""/><path class="t" d=""/><path class="t" d=""/><path class="P" d=""/><path class="R" d=""/><path class="t" d=""/><path class="t" d=""/><path class="P" d=""/><path class="t" d=""/><path class="t" d=""/><path class="R" d=""/><path class="t" d=""/><path class="R" d=""/><path class="t" d=""/><path class="t" d=""/><path class="t" d=""/><path class="t" d=""/><path class="t" d=""/><path class="t" d=""/><path class="R" d=""/><path class="P" d=""/><path class="t" d=""/><path class="t" d=""/><path class="P" d=""/><path class="t" d=""/><path class="P" d=""/><path class="P" d=""/><path class="t" d=""/><path class="P" d=""/><path class="P" d=""/><path class="t" d=""/><path class="t" d=""/><path class="t" d=""/><path class="R" d=""/><path class="t" d=""/><path class="R" d=""/><path class="t" d=""/><path class="t" d=""/><path class="t" d=""/><path class="t" d=""/><path class="t" d=""/><path class="P" d=""/><path class="t" d=""/><path class="P" d=""/><path class="P" d=""/><path class="t" d=""/><path class="t" d=""/><path class="t" d=""/><path class="t" d=""/><path class="t" d=""/><path class="t" d=""/><path class="t" d=""/><path class="P" d=""/><path class="t" d=""/><path class="t" d=""/><path class="t" d=""/><path class="R" d=""/><path class="t" d=""/><path class="P" d=""/><path class="t" d=""/><path class="t" d=""/><path class="P" d=""/><path class="P" d=""/><path class="P" d=""/><path class="P" d=""/><path class="t" d=""/><path class="t" d=""/><path class="t" d=""/><path class="t" d=""/><path class="R" d=""/><path class="P" d=""/><path class="P" d=""/><path class="t" d=""/><path class="t" d=""/><path class="P" d=""/><path class="t" d=""/><path class="R" d=""/><path class="R" d=""/><path class="t" d=""/><path class="t" d=""/><path class="t" d=""/><path class="P" d=""/><path class="t" d=""/><path class="P" d=""/><path class="P" d=""/><path class="t" d=""/><path class="t" d=""/><path class="t" d=""/><path class="P" d=""/><path class="R" d=""/><path class="R" d=""/><path class="t" d=""/><path class="t" d=""/><path class="t" d=""/><path class="P" d=""/><path class="t" d=""/><path class="t" d=""/><path class="P" d=""/><path class="t" d=""/><path class="H" d=""/><path class="P" d=""/><path class="t" d=""/><path class="R" d=""/><path class="R" d=""/><path class="t" d=""/><path class="t" d=""/><path class="P" d=""/><path class="t" d=""/><path class="P" d=""/><path class="t" d=""/><path class="t" d=""/><path class="R" d=""/><path class="R" d=""/><path class="R" d=""/><path class="P" d=""/><path class="R" d=""/><path class="R" d=""/><path class="R" d=""/><path class="t" d=""/><path class="t" d=""/><path class="t" d=""/><path class="P" d=""/><path class="t" d=""/><path class="t" d=""/><path class="t" d=""/><path class="t" d=""/><path class="t" d=""/><path class="t" d=""/><path class="R" d=""/><path class="P" d=""/><path class="R" d=""/><path class="R" d=""/><path class="t" d=""/><path class="t" d=""/><path class="t" d=""/><path class="t" d=""/><path class="t" d=""/><path class="t" d=""/><path class="P" d=""/><path class="P" d=""/><path class="t" d=""/><path class="t" d=""/><path class="t" d=""/><path class="t" d=""/><path class="t" d=""/><path class="P" d=""/><path class="t" d=""/><path class="t" d=""/><path class="R" d=""/><path class="P" d=""/><path class="P" d=""/><path class="R" d=""/><path class="R" d=""/><path class="P" d=""/><path class="t" d=""/><path class="t" d=""/><path class="P" d=""/><path class="t" d=""/><path class="t" d=""/><path class="P" d=""/><path class="t" d=""/><path class="t" d=""/><path class="t" d=""/><path class="R" d=""/><path class="t" d=""/><path class="t" d=""/><path class="P" d=""/><path class="t" d=""/><path class="P" d=""/><path class="t" d=""/><path class="t" d=""/><path class="t" d=""/><path class="R" d=""/><path class="t" d=""/><path class="t" d=""/><path class="R" d=""/><path class="t" d=""/><path class="t" d=""/><path class="P" d=""/><path class="t" d=""/><path class="t" d=""/><path class="P" d=""/><path class="P" d=""/><path class="P" d=""/><path class="t" d=""/><path class="t" d=""/><path class="t" d=""/><path class="P" d=""/><path class="t" d=""/><path class="t" d=""/><path class="t" d=""/><path class="t" d=""/><path class="t" d=""/><path class="t" d=""/><path class="P" d=""/><path class="P" d=""/><path class="t" d=""/><path class="t" d=""/><path class="R" d=""/><path class="t" d=""/><path class="t" d=""/><path class="P" d=""/><path class="t" d=""/><path class="P" d=""/><path class="t" d=""/><path class="t" d=""/><path class="P" d=""/><path class="t" d=""/><path class="t" d=""/><path class="R" d=""/><path class="t" d=""/><path class="t" d=""/><path class="P" d=""/><path class="P" d=""/><path class="t" d=""/><path class="P" d=""/><path class="t" d=""/><path class="P" d=""/><path class="t" d=""/><path class="t" d=""/><path class="t" d=""/><path class="t" d=""/><path class="t" d=""/><path class="t" d=""/><path class="t" d=""/><path class="P" d=""/><path class="t" d=""/><path class="H" d=""/><path class="P" d=""/><path class="t" d=""/><path class="t" d=""/><path class="P" d=""/><path class="P" d=""/><path class="t" d=""/><path class="t" d=""/><path class="t" d=""/><path class="t" d=""/><path class="t" d=""/><path class="t" d=""/><path class="t" d=""/><path class="t" d=""/><path class="t" d=""/><path class="t" d=""/><path class="t" d=""/><path class="t" d=""/><path class="t" d=""/><path class="t" d=""/><path class="t" d=""/><path class="R" d=""/><path class="t" d=""/><path class="t" d=""/><path class="t" d=""/><path class="t" d=""/><path class="P" d=""/><path class="t" d=""/><path class="P" d=""/><path class="P" d=""/><path class="t" d=""/><path class="P" d=""/><path class="P" d=""/><path class="t" d=""/><path class="P" d=""/><path class="P" d=""/><path class="t" d=""/><path class="t" d=""/><path class="t" d=""/><path class="t" d=""/><path class="t" d=""/><path class="t" d=""/><path class="R" d=""/><path class="R" d=""/><path class="R" d=""/><path class="P" d=""/><path class="t" d=""/><path class="t" d=""/><path class="R" d=""/><path class="t" d=""/><path class="P" d=""/><path class="P" d=""/><path class="P" d=""/><path class="t" d=""/><path class="t" d=""/><path class="t" d=""/><path class="P" d=""/><path class="t" d=""/><path class="t" d=""/><path class="t" d=""/><path class="P" d=""/><path class="R" d=""/><path class="t" d=""/><path class="t" d=""/><path class="P" d=""/><path class="t" d=""/><path class="t" d=""/><path class="t" d=""/><path class="t" d=""/><path class="R" d=""/><path class="P" d=""/><path class="t" d=""/><path class="t" d=""/><path class="R" d=""/><path class="t" d=""/><path class="t" d=""/><path class="P" d=""/><path class="t" d=""/><path class="t" d=""/><path class="t" d=""/><path class="t" d=""/><path class="R" d=""/><path class="R" d=""/><path class="P" d=""/><path class="t" d=""/><path class="P" d=""/><path class="R" d=""/><path class="R" d=""/><path class="R" d=""/><path class="t" d=""/><path class="P" d=""/><path class="P" d=""/><path class="t" d=""/><path class="P" d=""/><path class="P" d=""/><path class="t" d=""/><path class="t" d=""/><path class="R" d=""/><path class="t" d=""/><path class="t" d=""/><path class="t" d=""/><path class="t" d=""/><path class="t" d=""/><path class="t" d=""/><path class="P" d=""/><path class="t" d=""/><path class="t" d=""/><path class="P" d=""/><path class="R" d=""/><path class="P" d=""/><path class="t" d=""/><path class="t" d=""/><path class="t" d=""/><path class="t" d=""/><path class="R" d=""/><path class="t" d=""/><path class="R" d=""/><path class="t" d=""/><path class="t" d=""/><path class="P" d=""/><path class="t" d=""/><path class="t" d=""/><path class="t" d=""/><path class="t" d=""/><path class="t" d=""/><path class="t" d=""/><path class="t" d=""/><path class="R" d=""/><path class="t" d=""/><path class="t" d=""/><path class="t" d=""/><path class="P" d=""/><path class="t" d=""/><path class="t" d=""/><path class="t" d=""/><path class="P" d=""/><path class="P" d=""/><path class="P" d=""/><path class="t" d=""/><path class="t" d=""/><path class="t" d=""/><path class="R" d=""/><path class="t" d=""/><path class="t" d=""/><path class="t" d=""/><path class="t" d=""/><path class="t" d=""/><path class="P" d=""/></svg>